<mxfile host="Electron" modified="2024-04-14T05:32:10.091Z" agent="Mozilla/5.0 (Windows NT 10.0; Win64; x64) AppleWebKit/537.36 (KHTML, like Gecko) draw.io/24.2.5 Chrome/120.0.6099.109 Electron/28.1.0 Safari/537.36" etag="i7vMEZ5a0QijV8yBuZxW" version="24.2.5" type="device" pages="6">
  <diagram name="Selection Sort" id="GL3jX7zsxz7QDaE_jypX">
    <mxGraphModel dx="875" dy="558" grid="1" gridSize="10" guides="1" tooltips="1" connect="1" arrows="1" fold="1" page="1" pageScale="1" pageWidth="827" pageHeight="1169" math="0" shadow="0">
      <root>
        <mxCell id="0" />
        <mxCell id="1" parent="0" />
        <mxCell id="L4gTXorYzI44S-b1kWFq-1" value="" style="whiteSpace=wrap;html=1;aspect=fixed;labelBackgroundColor=none;fillColor=#182E3E;strokeColor=#FFFFFF;fontColor=#FFFFFF;" vertex="1" parent="1">
          <mxGeometry x="200" y="240" width="40" height="40" as="geometry" />
        </mxCell>
        <mxCell id="L4gTXorYzI44S-b1kWFq-2" value="" style="whiteSpace=wrap;html=1;aspect=fixed;labelBackgroundColor=none;fillColor=#182E3E;strokeColor=#FFFFFF;fontColor=#FFFFFF;" vertex="1" parent="1">
          <mxGeometry x="280" y="240" width="40" height="40" as="geometry" />
        </mxCell>
        <mxCell id="L4gTXorYzI44S-b1kWFq-3" value="" style="whiteSpace=wrap;html=1;aspect=fixed;labelBackgroundColor=none;fillColor=#182E3E;strokeColor=#FFFFFF;fontColor=#FFFFFF;" vertex="1" parent="1">
          <mxGeometry x="360" y="240" width="40" height="40" as="geometry" />
        </mxCell>
        <mxCell id="L4gTXorYzI44S-b1kWFq-5" value="" style="whiteSpace=wrap;html=1;aspect=fixed;labelBackgroundColor=none;fillColor=#182E3E;strokeColor=#FFFFFF;fontColor=#FFFFFF;" vertex="1" parent="1">
          <mxGeometry x="440" y="240" width="40" height="40" as="geometry" />
        </mxCell>
        <mxCell id="L4gTXorYzI44S-b1kWFq-6" value="" style="whiteSpace=wrap;html=1;aspect=fixed;labelBackgroundColor=none;fillColor=#182E3E;strokeColor=#FFFFFF;fontColor=#FFFFFF;" vertex="1" parent="1">
          <mxGeometry x="520" y="240" width="40" height="40" as="geometry" />
        </mxCell>
        <mxCell id="L4gTXorYzI44S-b1kWFq-7" value="&lt;font style=&quot;font-size: 24px;&quot;&gt;44&lt;/font&gt;" style="text;align=center;html=1;verticalAlign=middle;whiteSpace=wrap;rounded=0;labelBackgroundColor=none;fontColor=#FFFFFF;" vertex="1" parent="1">
          <mxGeometry x="190" y="245" width="60" height="30" as="geometry" />
        </mxCell>
        <mxCell id="L4gTXorYzI44S-b1kWFq-8" value="&lt;font style=&quot;font-size: 24px;&quot;&gt;50&lt;/font&gt;" style="text;align=center;html=1;verticalAlign=middle;whiteSpace=wrap;rounded=0;labelBackgroundColor=none;fontColor=#FFFFFF;" vertex="1" parent="1">
          <mxGeometry x="270" y="245" width="60" height="30" as="geometry" />
        </mxCell>
        <mxCell id="L4gTXorYzI44S-b1kWFq-9" value="&lt;font style=&quot;font-size: 24px;&quot;&gt;3&lt;/font&gt;" style="text;align=center;html=1;verticalAlign=middle;whiteSpace=wrap;rounded=0;labelBackgroundColor=none;fontColor=#FFFFFF;" vertex="1" parent="1">
          <mxGeometry x="350" y="245" width="60" height="30" as="geometry" />
        </mxCell>
        <mxCell id="L4gTXorYzI44S-b1kWFq-10" value="&lt;font style=&quot;font-size: 24px;&quot;&gt;8&lt;/font&gt;" style="text;align=center;html=1;verticalAlign=middle;whiteSpace=wrap;rounded=0;labelBackgroundColor=none;fontColor=#FFFFFF;" vertex="1" parent="1">
          <mxGeometry x="430" y="245" width="60" height="30" as="geometry" />
        </mxCell>
        <mxCell id="L4gTXorYzI44S-b1kWFq-11" value="&lt;font style=&quot;font-size: 24px;&quot;&gt;10&lt;/font&gt;" style="text;align=center;html=1;verticalAlign=middle;whiteSpace=wrap;rounded=0;labelBackgroundColor=none;fontColor=#FFFFFF;" vertex="1" parent="1">
          <mxGeometry x="510" y="245" width="60" height="30" as="geometry" />
        </mxCell>
        <mxCell id="L4gTXorYzI44S-b1kWFq-12" value="" style="endArrow=none;html=1;rounded=0;strokeColor=#6c8ebf;fillColor=#dae8fc;gradientColor=#7ea6e0;" edge="1" parent="1">
          <mxGeometry width="50" height="50" relative="1" as="geometry">
            <mxPoint x="220" y="310" as="sourcePoint" />
            <mxPoint x="220" y="290" as="targetPoint" />
          </mxGeometry>
        </mxCell>
        <mxCell id="L4gTXorYzI44S-b1kWFq-13" value="" style="endArrow=none;html=1;rounded=0;strokeColor=#6c8ebf;fillColor=#dae8fc;gradientColor=#7ea6e0;" edge="1" parent="1">
          <mxGeometry width="50" height="50" relative="1" as="geometry">
            <mxPoint x="380" y="300" as="sourcePoint" />
            <mxPoint x="220" y="300" as="targetPoint" />
          </mxGeometry>
        </mxCell>
        <mxCell id="L4gTXorYzI44S-b1kWFq-14" value="" style="endArrow=none;html=1;rounded=0;strokeColor=#6c8ebf;fillColor=#dae8fc;gradientColor=#7ea6e0;" edge="1" parent="1">
          <mxGeometry width="50" height="50" relative="1" as="geometry">
            <mxPoint x="380" y="310" as="sourcePoint" />
            <mxPoint x="380" y="290" as="targetPoint" />
          </mxGeometry>
        </mxCell>
        <mxCell id="L4gTXorYzI44S-b1kWFq-15" value="" style="whiteSpace=wrap;html=1;aspect=fixed;labelBackgroundColor=none;fillColor=#182E3E;strokeColor=#FFFFFF;fontColor=#FFFFFF;" vertex="1" parent="1">
          <mxGeometry x="200" y="320" width="40" height="40" as="geometry" />
        </mxCell>
        <mxCell id="L4gTXorYzI44S-b1kWFq-16" value="&lt;font style=&quot;font-size: 24px;&quot;&gt;3&lt;/font&gt;" style="text;align=center;html=1;verticalAlign=middle;whiteSpace=wrap;rounded=0;labelBackgroundColor=none;fontColor=#FFFFFF;" vertex="1" parent="1">
          <mxGeometry x="190" y="325" width="60" height="30" as="geometry" />
        </mxCell>
        <mxCell id="L4gTXorYzI44S-b1kWFq-17" value="" style="whiteSpace=wrap;html=1;aspect=fixed;labelBackgroundColor=none;fillColor=#182E3E;strokeColor=#FFFFFF;fontColor=#FFFFFF;" vertex="1" parent="1">
          <mxGeometry x="360" y="320" width="40" height="40" as="geometry" />
        </mxCell>
        <mxCell id="L4gTXorYzI44S-b1kWFq-18" value="&lt;font style=&quot;font-size: 24px;&quot;&gt;44&lt;/font&gt;" style="text;align=center;html=1;verticalAlign=middle;whiteSpace=wrap;rounded=0;labelBackgroundColor=none;fontColor=#FFFFFF;" vertex="1" parent="1">
          <mxGeometry x="350" y="325" width="60" height="30" as="geometry" />
        </mxCell>
        <mxCell id="L4gTXorYzI44S-b1kWFq-19" value="" style="whiteSpace=wrap;html=1;aspect=fixed;labelBackgroundColor=none;fillColor=#182E3E;strokeColor=#FFFFFF;fontColor=#FFFFFF;" vertex="1" parent="1">
          <mxGeometry x="280" y="320" width="40" height="40" as="geometry" />
        </mxCell>
        <mxCell id="L4gTXorYzI44S-b1kWFq-20" value="" style="whiteSpace=wrap;html=1;aspect=fixed;labelBackgroundColor=none;fillColor=#182E3E;strokeColor=#FFFFFF;fontColor=#FFFFFF;" vertex="1" parent="1">
          <mxGeometry x="440" y="320" width="40" height="40" as="geometry" />
        </mxCell>
        <mxCell id="L4gTXorYzI44S-b1kWFq-21" value="" style="whiteSpace=wrap;html=1;aspect=fixed;labelBackgroundColor=none;fillColor=#182E3E;strokeColor=#FFFFFF;fontColor=#FFFFFF;" vertex="1" parent="1">
          <mxGeometry x="520" y="320" width="40" height="40" as="geometry" />
        </mxCell>
        <mxCell id="L4gTXorYzI44S-b1kWFq-22" value="&lt;font style=&quot;font-size: 24px;&quot;&gt;50&lt;/font&gt;" style="text;align=center;html=1;verticalAlign=middle;whiteSpace=wrap;rounded=0;labelBackgroundColor=none;fontColor=#FFFFFF;" vertex="1" parent="1">
          <mxGeometry x="270" y="325" width="60" height="30" as="geometry" />
        </mxCell>
        <mxCell id="L4gTXorYzI44S-b1kWFq-23" value="&lt;font style=&quot;font-size: 24px;&quot;&gt;10&lt;/font&gt;" style="text;align=center;html=1;verticalAlign=middle;whiteSpace=wrap;rounded=0;labelBackgroundColor=none;fontColor=#FFFFFF;" vertex="1" parent="1">
          <mxGeometry x="510" y="325" width="60" height="30" as="geometry" />
        </mxCell>
        <mxCell id="L4gTXorYzI44S-b1kWFq-24" value="&lt;font style=&quot;font-size: 24px;&quot;&gt;8&lt;/font&gt;" style="text;align=center;html=1;verticalAlign=middle;whiteSpace=wrap;rounded=0;labelBackgroundColor=none;fontColor=#FFFFFF;" vertex="1" parent="1">
          <mxGeometry x="430" y="325" width="60" height="30" as="geometry" />
        </mxCell>
        <mxCell id="L4gTXorYzI44S-b1kWFq-25" value="" style="endArrow=none;html=1;rounded=0;strokeColor=#6c8ebf;fillColor=#dae8fc;gradientColor=#7ea6e0;" edge="1" parent="1">
          <mxGeometry width="50" height="50" relative="1" as="geometry">
            <mxPoint x="299.71" y="390" as="sourcePoint" />
            <mxPoint x="299.71" y="370" as="targetPoint" />
          </mxGeometry>
        </mxCell>
        <mxCell id="L4gTXorYzI44S-b1kWFq-26" value="" style="endArrow=none;html=1;rounded=0;strokeColor=#6c8ebf;fillColor=#dae8fc;gradientColor=#7ea6e0;" edge="1" parent="1">
          <mxGeometry width="50" height="50" relative="1" as="geometry">
            <mxPoint x="459.71" y="380" as="sourcePoint" />
            <mxPoint x="299.71" y="380" as="targetPoint" />
          </mxGeometry>
        </mxCell>
        <mxCell id="L4gTXorYzI44S-b1kWFq-27" value="" style="endArrow=none;html=1;rounded=0;strokeColor=#6c8ebf;fillColor=#dae8fc;gradientColor=#7ea6e0;" edge="1" parent="1">
          <mxGeometry width="50" height="50" relative="1" as="geometry">
            <mxPoint x="459.71" y="390" as="sourcePoint" />
            <mxPoint x="459.71" y="370" as="targetPoint" />
          </mxGeometry>
        </mxCell>
        <mxCell id="L4gTXorYzI44S-b1kWFq-28" value="" style="endArrow=none;html=1;rounded=0;strokeColor=#6c8ebf;fillColor=#dae8fc;gradientColor=#7ea6e0;" edge="1" parent="1">
          <mxGeometry width="50" height="50" relative="1" as="geometry">
            <mxPoint x="379.71000000000004" y="470" as="sourcePoint" />
            <mxPoint x="379.71000000000004" y="450" as="targetPoint" />
          </mxGeometry>
        </mxCell>
        <mxCell id="L4gTXorYzI44S-b1kWFq-29" value="" style="endArrow=none;html=1;rounded=0;strokeColor=#6c8ebf;fillColor=#dae8fc;gradientColor=#7ea6e0;" edge="1" parent="1">
          <mxGeometry width="50" height="50" relative="1" as="geometry">
            <mxPoint x="539.71" y="460" as="sourcePoint" />
            <mxPoint x="379.71000000000004" y="460" as="targetPoint" />
          </mxGeometry>
        </mxCell>
        <mxCell id="L4gTXorYzI44S-b1kWFq-30" value="" style="endArrow=none;html=1;rounded=0;strokeColor=#6c8ebf;fillColor=#dae8fc;gradientColor=#7ea6e0;" edge="1" parent="1">
          <mxGeometry width="50" height="50" relative="1" as="geometry">
            <mxPoint x="539.71" y="470" as="sourcePoint" />
            <mxPoint x="539.71" y="450" as="targetPoint" />
          </mxGeometry>
        </mxCell>
        <mxCell id="L4gTXorYzI44S-b1kWFq-31" value="" style="whiteSpace=wrap;html=1;aspect=fixed;labelBackgroundColor=none;fillColor=#182E3E;strokeColor=#FFFFFF;fontColor=#FFFFFF;" vertex="1" parent="1">
          <mxGeometry x="200" y="400" width="40" height="40" as="geometry" />
        </mxCell>
        <mxCell id="L4gTXorYzI44S-b1kWFq-32" value="&lt;font style=&quot;font-size: 24px;&quot;&gt;3&lt;/font&gt;" style="text;align=center;html=1;verticalAlign=middle;whiteSpace=wrap;rounded=0;labelBackgroundColor=none;fontColor=#FFFFFF;" vertex="1" parent="1">
          <mxGeometry x="190" y="405" width="60" height="30" as="geometry" />
        </mxCell>
        <mxCell id="L4gTXorYzI44S-b1kWFq-33" value="" style="whiteSpace=wrap;html=1;aspect=fixed;labelBackgroundColor=none;fillColor=#182E3E;strokeColor=#FFFFFF;fontColor=#FFFFFF;" vertex="1" parent="1">
          <mxGeometry x="360" y="400" width="40" height="40" as="geometry" />
        </mxCell>
        <mxCell id="L4gTXorYzI44S-b1kWFq-34" value="&lt;font style=&quot;font-size: 24px;&quot;&gt;44&lt;/font&gt;" style="text;align=center;html=1;verticalAlign=middle;whiteSpace=wrap;rounded=0;labelBackgroundColor=none;fontColor=#FFFFFF;" vertex="1" parent="1">
          <mxGeometry x="350" y="405" width="60" height="30" as="geometry" />
        </mxCell>
        <mxCell id="L4gTXorYzI44S-b1kWFq-35" value="" style="whiteSpace=wrap;html=1;aspect=fixed;labelBackgroundColor=none;fillColor=#182E3E;strokeColor=#FFFFFF;fontColor=#FFFFFF;" vertex="1" parent="1">
          <mxGeometry x="440" y="400" width="40" height="40" as="geometry" />
        </mxCell>
        <mxCell id="L4gTXorYzI44S-b1kWFq-36" value="&lt;font style=&quot;font-size: 24px;&quot;&gt;50&lt;/font&gt;" style="text;align=center;html=1;verticalAlign=middle;whiteSpace=wrap;rounded=0;labelBackgroundColor=none;fontColor=#FFFFFF;" vertex="1" parent="1">
          <mxGeometry x="430" y="405" width="60" height="30" as="geometry" />
        </mxCell>
        <mxCell id="L4gTXorYzI44S-b1kWFq-37" value="" style="whiteSpace=wrap;html=1;aspect=fixed;labelBackgroundColor=none;fillColor=#182E3E;strokeColor=#FFFFFF;fontColor=#FFFFFF;" vertex="1" parent="1">
          <mxGeometry x="280" y="400" width="40" height="40" as="geometry" />
        </mxCell>
        <mxCell id="L4gTXorYzI44S-b1kWFq-38" value="&lt;font style=&quot;font-size: 24px;&quot;&gt;8&lt;/font&gt;" style="text;align=center;html=1;verticalAlign=middle;whiteSpace=wrap;rounded=0;labelBackgroundColor=none;fontColor=#FFFFFF;" vertex="1" parent="1">
          <mxGeometry x="270" y="405" width="60" height="30" as="geometry" />
        </mxCell>
        <mxCell id="L4gTXorYzI44S-b1kWFq-41" value="" style="whiteSpace=wrap;html=1;aspect=fixed;labelBackgroundColor=none;fillColor=#182E3E;strokeColor=#FFFFFF;fontColor=#FFFFFF;" vertex="1" parent="1">
          <mxGeometry x="520" y="400" width="40" height="40" as="geometry" />
        </mxCell>
        <mxCell id="L4gTXorYzI44S-b1kWFq-42" value="&lt;font style=&quot;font-size: 24px;&quot;&gt;10&lt;/font&gt;" style="text;align=center;html=1;verticalAlign=middle;whiteSpace=wrap;rounded=0;labelBackgroundColor=none;fontColor=#FFFFFF;" vertex="1" parent="1">
          <mxGeometry x="510" y="405" width="60" height="30" as="geometry" />
        </mxCell>
        <mxCell id="L4gTXorYzI44S-b1kWFq-43" value="" style="whiteSpace=wrap;html=1;aspect=fixed;labelBackgroundColor=none;fillColor=#182E3E;strokeColor=#FFFFFF;fontColor=#FFFFFF;" vertex="1" parent="1">
          <mxGeometry x="200" y="480" width="40" height="40" as="geometry" />
        </mxCell>
        <mxCell id="L4gTXorYzI44S-b1kWFq-44" value="&lt;font style=&quot;font-size: 24px;&quot;&gt;3&lt;/font&gt;" style="text;align=center;html=1;verticalAlign=middle;whiteSpace=wrap;rounded=0;labelBackgroundColor=none;fontColor=#FFFFFF;" vertex="1" parent="1">
          <mxGeometry x="190" y="485" width="60" height="30" as="geometry" />
        </mxCell>
        <mxCell id="L4gTXorYzI44S-b1kWFq-45" value="" style="whiteSpace=wrap;html=1;aspect=fixed;labelBackgroundColor=none;fillColor=#182E3E;strokeColor=#FFFFFF;fontColor=#FFFFFF;" vertex="1" parent="1">
          <mxGeometry x="280" y="480" width="40" height="40" as="geometry" />
        </mxCell>
        <mxCell id="L4gTXorYzI44S-b1kWFq-46" value="&lt;font style=&quot;font-size: 24px;&quot;&gt;8&lt;/font&gt;" style="text;align=center;html=1;verticalAlign=middle;whiteSpace=wrap;rounded=0;labelBackgroundColor=none;fontColor=#FFFFFF;" vertex="1" parent="1">
          <mxGeometry x="270" y="485" width="60" height="30" as="geometry" />
        </mxCell>
        <mxCell id="L4gTXorYzI44S-b1kWFq-47" value="" style="whiteSpace=wrap;html=1;aspect=fixed;labelBackgroundColor=none;fillColor=#182E3E;strokeColor=#FFFFFF;fontColor=#FFFFFF;" vertex="1" parent="1">
          <mxGeometry x="520" y="480" width="40" height="40" as="geometry" />
        </mxCell>
        <mxCell id="L4gTXorYzI44S-b1kWFq-48" value="&lt;font style=&quot;font-size: 24px;&quot;&gt;44&lt;/font&gt;" style="text;align=center;html=1;verticalAlign=middle;whiteSpace=wrap;rounded=0;labelBackgroundColor=none;fontColor=#FFFFFF;" vertex="1" parent="1">
          <mxGeometry x="510" y="485" width="60" height="30" as="geometry" />
        </mxCell>
        <mxCell id="L4gTXorYzI44S-b1kWFq-49" value="" style="whiteSpace=wrap;html=1;aspect=fixed;labelBackgroundColor=none;fillColor=#182E3E;strokeColor=#FFFFFF;fontColor=#FFFFFF;" vertex="1" parent="1">
          <mxGeometry x="360" y="480" width="40" height="40" as="geometry" />
        </mxCell>
        <mxCell id="L4gTXorYzI44S-b1kWFq-50" value="&lt;font style=&quot;font-size: 24px;&quot;&gt;10&lt;/font&gt;" style="text;align=center;html=1;verticalAlign=middle;whiteSpace=wrap;rounded=0;labelBackgroundColor=none;fontColor=#FFFFFF;" vertex="1" parent="1">
          <mxGeometry x="350" y="485" width="60" height="30" as="geometry" />
        </mxCell>
        <mxCell id="L4gTXorYzI44S-b1kWFq-51" value="" style="whiteSpace=wrap;html=1;aspect=fixed;labelBackgroundColor=none;fillColor=#182E3E;strokeColor=#FFFFFF;fontColor=#FFFFFF;" vertex="1" parent="1">
          <mxGeometry x="440" y="480" width="40" height="40" as="geometry" />
        </mxCell>
        <mxCell id="L4gTXorYzI44S-b1kWFq-52" value="&lt;font style=&quot;font-size: 24px;&quot;&gt;50&lt;/font&gt;" style="text;align=center;html=1;verticalAlign=middle;whiteSpace=wrap;rounded=0;labelBackgroundColor=none;fontColor=#FFFFFF;" vertex="1" parent="1">
          <mxGeometry x="430" y="485" width="60" height="30" as="geometry" />
        </mxCell>
        <mxCell id="L4gTXorYzI44S-b1kWFq-53" value="" style="endArrow=none;html=1;rounded=0;strokeColor=#6c8ebf;fillColor=#dae8fc;gradientColor=#7ea6e0;" edge="1" parent="1">
          <mxGeometry width="50" height="50" relative="1" as="geometry">
            <mxPoint x="459.71000000000004" y="550" as="sourcePoint" />
            <mxPoint x="459.71000000000004" y="530" as="targetPoint" />
          </mxGeometry>
        </mxCell>
        <mxCell id="L4gTXorYzI44S-b1kWFq-54" value="" style="endArrow=none;html=1;rounded=0;strokeColor=#6c8ebf;fillColor=#dae8fc;gradientColor=#7ea6e0;" edge="1" parent="1">
          <mxGeometry width="50" height="50" relative="1" as="geometry">
            <mxPoint x="540" y="540" as="sourcePoint" />
            <mxPoint x="459.71000000000004" y="540" as="targetPoint" />
          </mxGeometry>
        </mxCell>
        <mxCell id="L4gTXorYzI44S-b1kWFq-55" value="" style="endArrow=none;html=1;rounded=0;strokeColor=#6c8ebf;fillColor=#dae8fc;gradientColor=#7ea6e0;" edge="1" parent="1">
          <mxGeometry width="50" height="50" relative="1" as="geometry">
            <mxPoint x="540" y="550" as="sourcePoint" />
            <mxPoint x="540" y="530" as="targetPoint" />
          </mxGeometry>
        </mxCell>
        <mxCell id="L4gTXorYzI44S-b1kWFq-56" value="" style="whiteSpace=wrap;html=1;aspect=fixed;labelBackgroundColor=none;fillColor=#182E3E;strokeColor=#FFFFFF;fontColor=#FFFFFF;" vertex="1" parent="1">
          <mxGeometry x="200" y="560" width="40" height="40" as="geometry" />
        </mxCell>
        <mxCell id="L4gTXorYzI44S-b1kWFq-57" value="&lt;font style=&quot;font-size: 24px;&quot;&gt;3&lt;/font&gt;" style="text;align=center;html=1;verticalAlign=middle;whiteSpace=wrap;rounded=0;labelBackgroundColor=none;fontColor=#FFFFFF;" vertex="1" parent="1">
          <mxGeometry x="190" y="565" width="60" height="30" as="geometry" />
        </mxCell>
        <mxCell id="L4gTXorYzI44S-b1kWFq-58" value="" style="whiteSpace=wrap;html=1;aspect=fixed;labelBackgroundColor=none;fillColor=#182E3E;strokeColor=#FFFFFF;fontColor=#FFFFFF;" vertex="1" parent="1">
          <mxGeometry x="280" y="560" width="40" height="40" as="geometry" />
        </mxCell>
        <mxCell id="L4gTXorYzI44S-b1kWFq-59" value="&lt;font style=&quot;font-size: 24px;&quot;&gt;8&lt;/font&gt;" style="text;align=center;html=1;verticalAlign=middle;whiteSpace=wrap;rounded=0;labelBackgroundColor=none;fontColor=#FFFFFF;" vertex="1" parent="1">
          <mxGeometry x="270" y="565" width="60" height="30" as="geometry" />
        </mxCell>
        <mxCell id="L4gTXorYzI44S-b1kWFq-60" value="" style="whiteSpace=wrap;html=1;aspect=fixed;labelBackgroundColor=none;fillColor=#182E3E;strokeColor=#FFFFFF;fontColor=#FFFFFF;" vertex="1" parent="1">
          <mxGeometry x="440" y="560" width="40" height="40" as="geometry" />
        </mxCell>
        <mxCell id="L4gTXorYzI44S-b1kWFq-61" value="&lt;font style=&quot;font-size: 24px;&quot;&gt;44&lt;/font&gt;" style="text;align=center;html=1;verticalAlign=middle;whiteSpace=wrap;rounded=0;labelBackgroundColor=none;fontColor=#FFFFFF;" vertex="1" parent="1">
          <mxGeometry x="430" y="565" width="60" height="30" as="geometry" />
        </mxCell>
        <mxCell id="L4gTXorYzI44S-b1kWFq-62" value="" style="whiteSpace=wrap;html=1;aspect=fixed;labelBackgroundColor=none;fillColor=#182E3E;strokeColor=#FFFFFF;fontColor=#FFFFFF;" vertex="1" parent="1">
          <mxGeometry x="360" y="560" width="40" height="40" as="geometry" />
        </mxCell>
        <mxCell id="L4gTXorYzI44S-b1kWFq-63" value="&lt;font style=&quot;font-size: 24px;&quot;&gt;10&lt;/font&gt;" style="text;align=center;html=1;verticalAlign=middle;whiteSpace=wrap;rounded=0;labelBackgroundColor=none;fontColor=#FFFFFF;" vertex="1" parent="1">
          <mxGeometry x="350" y="565" width="60" height="30" as="geometry" />
        </mxCell>
        <mxCell id="L4gTXorYzI44S-b1kWFq-64" value="" style="whiteSpace=wrap;html=1;aspect=fixed;labelBackgroundColor=none;fillColor=#182E3E;strokeColor=#FFFFFF;fontColor=#FFFFFF;" vertex="1" parent="1">
          <mxGeometry x="520" y="560" width="40" height="40" as="geometry" />
        </mxCell>
        <mxCell id="L4gTXorYzI44S-b1kWFq-65" value="&lt;font style=&quot;font-size: 24px;&quot;&gt;50&lt;/font&gt;" style="text;align=center;html=1;verticalAlign=middle;whiteSpace=wrap;rounded=0;labelBackgroundColor=none;fontColor=#FFFFFF;" vertex="1" parent="1">
          <mxGeometry x="510" y="565" width="60" height="30" as="geometry" />
        </mxCell>
      </root>
    </mxGraphModel>
  </diagram>
  <diagram id="gOcsG9GVjJm72pqL24cQ" name="Insertion Sort">
    <mxGraphModel dx="883" dy="558" grid="1" gridSize="10" guides="1" tooltips="1" connect="1" arrows="1" fold="1" page="1" pageScale="1" pageWidth="827" pageHeight="1169" math="0" shadow="0">
      <root>
        <mxCell id="0" />
        <mxCell id="1" parent="0" />
        <mxCell id="GjF9KbB1oHG8vixddbK--1" value="" style="whiteSpace=wrap;html=1;aspect=fixed;labelBackgroundColor=none;fillColor=#182E3E;strokeColor=#FFFFFF;fontColor=#FFFFFF;" vertex="1" parent="1">
          <mxGeometry x="240" y="80" width="40" height="40" as="geometry" />
        </mxCell>
        <mxCell id="GjF9KbB1oHG8vixddbK--2" value="" style="whiteSpace=wrap;html=1;aspect=fixed;labelBackgroundColor=none;fillColor=#182E3E;strokeColor=#FFFFFF;fontColor=#FFFFFF;" vertex="1" parent="1">
          <mxGeometry x="320" y="80" width="40" height="40" as="geometry" />
        </mxCell>
        <mxCell id="GjF9KbB1oHG8vixddbK--3" value="" style="whiteSpace=wrap;html=1;aspect=fixed;labelBackgroundColor=none;fillColor=#182E3E;strokeColor=#FFFFFF;fontColor=#FFFFFF;" vertex="1" parent="1">
          <mxGeometry x="400" y="80" width="40" height="40" as="geometry" />
        </mxCell>
        <mxCell id="GjF9KbB1oHG8vixddbK--4" value="" style="whiteSpace=wrap;html=1;aspect=fixed;labelBackgroundColor=none;fillColor=#182E3E;strokeColor=#FFFFFF;fontColor=#FFFFFF;" vertex="1" parent="1">
          <mxGeometry x="480" y="80" width="40" height="40" as="geometry" />
        </mxCell>
        <mxCell id="GjF9KbB1oHG8vixddbK--5" value="" style="whiteSpace=wrap;html=1;aspect=fixed;labelBackgroundColor=none;fillColor=#182E3E;strokeColor=#FFFFFF;fontColor=#FFFFFF;" vertex="1" parent="1">
          <mxGeometry x="560" y="80" width="40" height="40" as="geometry" />
        </mxCell>
        <mxCell id="GjF9KbB1oHG8vixddbK--6" value="&lt;font style=&quot;font-size: 24px;&quot;&gt;44&lt;/font&gt;" style="text;align=center;html=1;verticalAlign=middle;whiteSpace=wrap;rounded=0;labelBackgroundColor=none;fontColor=#FFFFFF;" vertex="1" parent="1">
          <mxGeometry x="230" y="85" width="60" height="30" as="geometry" />
        </mxCell>
        <mxCell id="GjF9KbB1oHG8vixddbK--7" value="&lt;font style=&quot;font-size: 24px;&quot;&gt;50&lt;/font&gt;" style="text;align=center;html=1;verticalAlign=middle;whiteSpace=wrap;rounded=0;labelBackgroundColor=none;fontColor=#FFFFFF;" vertex="1" parent="1">
          <mxGeometry x="310" y="85" width="60" height="30" as="geometry" />
        </mxCell>
        <mxCell id="GjF9KbB1oHG8vixddbK--8" value="&lt;font style=&quot;font-size: 24px;&quot;&gt;3&lt;/font&gt;" style="text;align=center;html=1;verticalAlign=middle;whiteSpace=wrap;rounded=0;labelBackgroundColor=none;fontColor=#FFFFFF;" vertex="1" parent="1">
          <mxGeometry x="390" y="85" width="60" height="30" as="geometry" />
        </mxCell>
        <mxCell id="GjF9KbB1oHG8vixddbK--9" value="&lt;font style=&quot;font-size: 24px;&quot;&gt;8&lt;/font&gt;" style="text;align=center;html=1;verticalAlign=middle;whiteSpace=wrap;rounded=0;labelBackgroundColor=none;fontColor=#FFFFFF;" vertex="1" parent="1">
          <mxGeometry x="470" y="85" width="60" height="30" as="geometry" />
        </mxCell>
        <mxCell id="GjF9KbB1oHG8vixddbK--10" value="&lt;font style=&quot;font-size: 24px;&quot;&gt;10&lt;/font&gt;" style="text;align=center;html=1;verticalAlign=middle;whiteSpace=wrap;rounded=0;labelBackgroundColor=none;fontColor=#FFFFFF;" vertex="1" parent="1">
          <mxGeometry x="550" y="85" width="60" height="30" as="geometry" />
        </mxCell>
        <mxCell id="GjF9KbB1oHG8vixddbK--22" value="" style="whiteSpace=wrap;html=1;aspect=fixed;labelBackgroundColor=none;fillColor=#182E3E;strokeColor=#FFFFFF;fontColor=#FFFFFF;" vertex="1" parent="1">
          <mxGeometry x="240" y="170" width="40" height="40" as="geometry" />
        </mxCell>
        <mxCell id="GjF9KbB1oHG8vixddbK--23" value="" style="whiteSpace=wrap;html=1;aspect=fixed;labelBackgroundColor=none;fillColor=#182E3E;strokeColor=#FFFFFF;fontColor=#FFFFFF;" vertex="1" parent="1">
          <mxGeometry x="320" y="170" width="40" height="40" as="geometry" />
        </mxCell>
        <mxCell id="GjF9KbB1oHG8vixddbK--24" value="" style="whiteSpace=wrap;html=1;aspect=fixed;labelBackgroundColor=none;fillColor=#182E3E;strokeColor=#FFFFFF;fontColor=#FFFFFF;" vertex="1" parent="1">
          <mxGeometry x="400" y="170" width="40" height="40" as="geometry" />
        </mxCell>
        <mxCell id="GjF9KbB1oHG8vixddbK--25" value="" style="whiteSpace=wrap;html=1;aspect=fixed;labelBackgroundColor=none;fillColor=#182E3E;strokeColor=#FFFFFF;fontColor=#FFFFFF;" vertex="1" parent="1">
          <mxGeometry x="480" y="170" width="40" height="40" as="geometry" />
        </mxCell>
        <mxCell id="GjF9KbB1oHG8vixddbK--26" value="" style="whiteSpace=wrap;html=1;aspect=fixed;labelBackgroundColor=none;fillColor=#182E3E;strokeColor=#FFFFFF;fontColor=#FFFFFF;" vertex="1" parent="1">
          <mxGeometry x="560" y="170" width="40" height="40" as="geometry" />
        </mxCell>
        <mxCell id="GjF9KbB1oHG8vixddbK--27" value="&lt;font style=&quot;font-size: 24px;&quot;&gt;44&lt;/font&gt;" style="text;align=center;html=1;verticalAlign=middle;whiteSpace=wrap;rounded=0;labelBackgroundColor=none;fontColor=#FFFFFF;" vertex="1" parent="1">
          <mxGeometry x="230" y="175" width="60" height="30" as="geometry" />
        </mxCell>
        <mxCell id="GjF9KbB1oHG8vixddbK--28" value="&lt;font style=&quot;font-size: 24px;&quot;&gt;50&lt;/font&gt;" style="text;align=center;html=1;verticalAlign=middle;whiteSpace=wrap;rounded=0;labelBackgroundColor=none;fontColor=#FFFFFF;" vertex="1" parent="1">
          <mxGeometry x="310" y="175" width="60" height="30" as="geometry" />
        </mxCell>
        <mxCell id="GjF9KbB1oHG8vixddbK--29" value="&lt;font style=&quot;font-size: 24px;&quot;&gt;3&lt;/font&gt;" style="text;align=center;html=1;verticalAlign=middle;whiteSpace=wrap;rounded=0;labelBackgroundColor=none;fontColor=#FFFFFF;" vertex="1" parent="1">
          <mxGeometry x="390" y="175" width="60" height="30" as="geometry" />
        </mxCell>
        <mxCell id="GjF9KbB1oHG8vixddbK--30" value="&lt;font style=&quot;font-size: 24px;&quot;&gt;8&lt;/font&gt;" style="text;align=center;html=1;verticalAlign=middle;whiteSpace=wrap;rounded=0;labelBackgroundColor=none;fontColor=#FFFFFF;" vertex="1" parent="1">
          <mxGeometry x="470" y="175" width="60" height="30" as="geometry" />
        </mxCell>
        <mxCell id="GjF9KbB1oHG8vixddbK--31" value="&lt;font style=&quot;font-size: 24px;&quot;&gt;10&lt;/font&gt;" style="text;align=center;html=1;verticalAlign=middle;whiteSpace=wrap;rounded=0;labelBackgroundColor=none;fontColor=#FFFFFF;" vertex="1" parent="1">
          <mxGeometry x="550" y="175" width="60" height="30" as="geometry" />
        </mxCell>
        <mxCell id="GjF9KbB1oHG8vixddbK--33" value="" style="endArrow=classic;html=1;rounded=0;strokeColor=#23445D;edgeStyle=orthogonalEdgeStyle;" edge="1" parent="1">
          <mxGeometry width="50" height="50" relative="1" as="geometry">
            <mxPoint x="350" y="130" as="sourcePoint" />
            <mxPoint x="330" y="160" as="targetPoint" />
            <Array as="points">
              <mxPoint x="350" y="140" />
              <mxPoint x="330" y="140" />
            </Array>
          </mxGeometry>
        </mxCell>
        <mxCell id="GjF9KbB1oHG8vixddbK--34" value="" style="whiteSpace=wrap;html=1;aspect=fixed;labelBackgroundColor=none;fillColor=#182E3E;strokeColor=#FFFFFF;fontColor=#FFFFFF;" vertex="1" parent="1">
          <mxGeometry x="240" y="260" width="40" height="40" as="geometry" />
        </mxCell>
        <mxCell id="GjF9KbB1oHG8vixddbK--35" value="" style="whiteSpace=wrap;html=1;aspect=fixed;labelBackgroundColor=none;fillColor=#182E3E;strokeColor=#FFFFFF;fontColor=#FFFFFF;" vertex="1" parent="1">
          <mxGeometry x="320" y="260" width="40" height="40" as="geometry" />
        </mxCell>
        <mxCell id="GjF9KbB1oHG8vixddbK--36" value="" style="whiteSpace=wrap;html=1;aspect=fixed;labelBackgroundColor=none;fillColor=#182E3E;strokeColor=#FFFFFF;fontColor=#FFFFFF;" vertex="1" parent="1">
          <mxGeometry x="400" y="260" width="40" height="40" as="geometry" />
        </mxCell>
        <mxCell id="GjF9KbB1oHG8vixddbK--37" value="" style="whiteSpace=wrap;html=1;aspect=fixed;labelBackgroundColor=none;fillColor=#182E3E;strokeColor=#FFFFFF;fontColor=#FFFFFF;" vertex="1" parent="1">
          <mxGeometry x="480" y="260" width="40" height="40" as="geometry" />
        </mxCell>
        <mxCell id="GjF9KbB1oHG8vixddbK--38" value="" style="whiteSpace=wrap;html=1;aspect=fixed;labelBackgroundColor=none;fillColor=#182E3E;strokeColor=#FFFFFF;fontColor=#FFFFFF;" vertex="1" parent="1">
          <mxGeometry x="560" y="260" width="40" height="40" as="geometry" />
        </mxCell>
        <mxCell id="GjF9KbB1oHG8vixddbK--39" value="&lt;font style=&quot;font-size: 24px;&quot;&gt;3&lt;/font&gt;" style="text;align=center;html=1;verticalAlign=middle;whiteSpace=wrap;rounded=0;labelBackgroundColor=none;fontColor=#FFFFFF;" vertex="1" parent="1">
          <mxGeometry x="230" y="265" width="60" height="30" as="geometry" />
        </mxCell>
        <mxCell id="GjF9KbB1oHG8vixddbK--40" value="&lt;font style=&quot;font-size: 24px;&quot;&gt;44&lt;/font&gt;" style="text;align=center;html=1;verticalAlign=middle;whiteSpace=wrap;rounded=0;labelBackgroundColor=none;fontColor=#FFFFFF;" vertex="1" parent="1">
          <mxGeometry x="310" y="265" width="60" height="30" as="geometry" />
        </mxCell>
        <mxCell id="GjF9KbB1oHG8vixddbK--41" value="&lt;font style=&quot;font-size: 24px;&quot;&gt;50&lt;/font&gt;" style="text;align=center;html=1;verticalAlign=middle;whiteSpace=wrap;rounded=0;labelBackgroundColor=none;fontColor=#FFFFFF;" vertex="1" parent="1">
          <mxGeometry x="390" y="265" width="60" height="30" as="geometry" />
        </mxCell>
        <mxCell id="GjF9KbB1oHG8vixddbK--42" value="&lt;font style=&quot;font-size: 24px;&quot;&gt;8&lt;/font&gt;" style="text;align=center;html=1;verticalAlign=middle;whiteSpace=wrap;rounded=0;labelBackgroundColor=none;fontColor=#FFFFFF;" vertex="1" parent="1">
          <mxGeometry x="470" y="265" width="60" height="30" as="geometry" />
        </mxCell>
        <mxCell id="GjF9KbB1oHG8vixddbK--43" value="&lt;font style=&quot;font-size: 24px;&quot;&gt;10&lt;/font&gt;" style="text;align=center;html=1;verticalAlign=middle;whiteSpace=wrap;rounded=0;labelBackgroundColor=none;fontColor=#FFFFFF;" vertex="1" parent="1">
          <mxGeometry x="550" y="265" width="60" height="30" as="geometry" />
        </mxCell>
        <mxCell id="GjF9KbB1oHG8vixddbK--44" value="" style="endArrow=classic;html=1;rounded=0;strokeColor=#23445D;edgeStyle=orthogonalEdgeStyle;" edge="1" parent="1">
          <mxGeometry width="50" height="50" relative="1" as="geometry">
            <mxPoint x="420" y="220" as="sourcePoint" />
            <mxPoint x="250" y="250" as="targetPoint" />
            <Array as="points">
              <mxPoint x="420" y="230" />
              <mxPoint x="250" y="230" />
              <mxPoint x="250" y="250" />
            </Array>
          </mxGeometry>
        </mxCell>
        <mxCell id="GjF9KbB1oHG8vixddbK--45" value="" style="whiteSpace=wrap;html=1;aspect=fixed;labelBackgroundColor=none;fillColor=#182E3E;strokeColor=#FFFFFF;fontColor=#FFFFFF;" vertex="1" parent="1">
          <mxGeometry x="240" y="350" width="40" height="40" as="geometry" />
        </mxCell>
        <mxCell id="GjF9KbB1oHG8vixddbK--46" value="" style="whiteSpace=wrap;html=1;aspect=fixed;labelBackgroundColor=none;fillColor=#182E3E;strokeColor=#FFFFFF;fontColor=#FFFFFF;" vertex="1" parent="1">
          <mxGeometry x="320" y="350" width="40" height="40" as="geometry" />
        </mxCell>
        <mxCell id="GjF9KbB1oHG8vixddbK--47" value="" style="whiteSpace=wrap;html=1;aspect=fixed;labelBackgroundColor=none;fillColor=#182E3E;strokeColor=#FFFFFF;fontColor=#FFFFFF;" vertex="1" parent="1">
          <mxGeometry x="400" y="350" width="40" height="40" as="geometry" />
        </mxCell>
        <mxCell id="GjF9KbB1oHG8vixddbK--48" value="" style="whiteSpace=wrap;html=1;aspect=fixed;labelBackgroundColor=none;fillColor=#182E3E;strokeColor=#FFFFFF;fontColor=#FFFFFF;" vertex="1" parent="1">
          <mxGeometry x="480" y="350" width="40" height="40" as="geometry" />
        </mxCell>
        <mxCell id="GjF9KbB1oHG8vixddbK--49" value="" style="whiteSpace=wrap;html=1;aspect=fixed;labelBackgroundColor=none;fillColor=#182E3E;strokeColor=#FFFFFF;fontColor=#FFFFFF;" vertex="1" parent="1">
          <mxGeometry x="560" y="350" width="40" height="40" as="geometry" />
        </mxCell>
        <mxCell id="GjF9KbB1oHG8vixddbK--50" value="&lt;font style=&quot;font-size: 24px;&quot;&gt;3&lt;/font&gt;" style="text;align=center;html=1;verticalAlign=middle;whiteSpace=wrap;rounded=0;labelBackgroundColor=none;fontColor=#FFFFFF;" vertex="1" parent="1">
          <mxGeometry x="230" y="355" width="60" height="30" as="geometry" />
        </mxCell>
        <mxCell id="GjF9KbB1oHG8vixddbK--51" value="&lt;font style=&quot;font-size: 24px;&quot;&gt;8&lt;/font&gt;" style="text;align=center;html=1;verticalAlign=middle;whiteSpace=wrap;rounded=0;labelBackgroundColor=none;fontColor=#FFFFFF;" vertex="1" parent="1">
          <mxGeometry x="310" y="355" width="60" height="30" as="geometry" />
        </mxCell>
        <mxCell id="GjF9KbB1oHG8vixddbK--52" value="&lt;font style=&quot;font-size: 24px;&quot;&gt;44&lt;/font&gt;" style="text;align=center;html=1;verticalAlign=middle;whiteSpace=wrap;rounded=0;labelBackgroundColor=none;fontColor=#FFFFFF;" vertex="1" parent="1">
          <mxGeometry x="390" y="355" width="60" height="30" as="geometry" />
        </mxCell>
        <mxCell id="GjF9KbB1oHG8vixddbK--53" value="&lt;font style=&quot;font-size: 24px;&quot;&gt;50&lt;/font&gt;" style="text;align=center;html=1;verticalAlign=middle;whiteSpace=wrap;rounded=0;labelBackgroundColor=none;fontColor=#FFFFFF;" vertex="1" parent="1">
          <mxGeometry x="470" y="355" width="60" height="30" as="geometry" />
        </mxCell>
        <mxCell id="GjF9KbB1oHG8vixddbK--54" value="&lt;font style=&quot;font-size: 24px;&quot;&gt;10&lt;/font&gt;" style="text;align=center;html=1;verticalAlign=middle;whiteSpace=wrap;rounded=0;labelBackgroundColor=none;fontColor=#FFFFFF;" vertex="1" parent="1">
          <mxGeometry x="550" y="355" width="60" height="30" as="geometry" />
        </mxCell>
        <mxCell id="GjF9KbB1oHG8vixddbK--55" value="" style="endArrow=classic;html=1;rounded=0;strokeColor=#23445D;edgeStyle=orthogonalEdgeStyle;" edge="1" parent="1">
          <mxGeometry width="50" height="50" relative="1" as="geometry">
            <mxPoint x="499" y="310" as="sourcePoint" />
            <mxPoint x="329" y="340" as="targetPoint" />
            <Array as="points">
              <mxPoint x="499" y="320" />
              <mxPoint x="329" y="320" />
              <mxPoint x="329" y="340" />
            </Array>
          </mxGeometry>
        </mxCell>
        <mxCell id="GjF9KbB1oHG8vixddbK--56" value="" style="endArrow=classic;html=1;rounded=0;strokeColor=#23445D;edgeStyle=orthogonalEdgeStyle;" edge="1" parent="1">
          <mxGeometry width="50" height="50" relative="1" as="geometry">
            <mxPoint x="580" y="400" as="sourcePoint" />
            <mxPoint x="410" y="430" as="targetPoint" />
            <Array as="points">
              <mxPoint x="580" y="410" />
              <mxPoint x="410" y="410" />
              <mxPoint x="410" y="430" />
            </Array>
          </mxGeometry>
        </mxCell>
        <mxCell id="GjF9KbB1oHG8vixddbK--57" value="" style="whiteSpace=wrap;html=1;aspect=fixed;labelBackgroundColor=none;fillColor=#182E3E;strokeColor=#FFFFFF;fontColor=#FFFFFF;" vertex="1" parent="1">
          <mxGeometry x="240" y="440" width="40" height="40" as="geometry" />
        </mxCell>
        <mxCell id="GjF9KbB1oHG8vixddbK--58" value="" style="whiteSpace=wrap;html=1;aspect=fixed;labelBackgroundColor=none;fillColor=#182E3E;strokeColor=#FFFFFF;fontColor=#FFFFFF;" vertex="1" parent="1">
          <mxGeometry x="320" y="440" width="40" height="40" as="geometry" />
        </mxCell>
        <mxCell id="GjF9KbB1oHG8vixddbK--59" value="" style="whiteSpace=wrap;html=1;aspect=fixed;labelBackgroundColor=none;fillColor=#182E3E;strokeColor=#FFFFFF;fontColor=#FFFFFF;" vertex="1" parent="1">
          <mxGeometry x="400" y="440" width="40" height="40" as="geometry" />
        </mxCell>
        <mxCell id="GjF9KbB1oHG8vixddbK--60" value="" style="whiteSpace=wrap;html=1;aspect=fixed;labelBackgroundColor=none;fillColor=#182E3E;strokeColor=#FFFFFF;fontColor=#FFFFFF;" vertex="1" parent="1">
          <mxGeometry x="480" y="440" width="40" height="40" as="geometry" />
        </mxCell>
        <mxCell id="GjF9KbB1oHG8vixddbK--61" value="" style="whiteSpace=wrap;html=1;aspect=fixed;labelBackgroundColor=none;fillColor=#182E3E;strokeColor=#FFFFFF;fontColor=#FFFFFF;" vertex="1" parent="1">
          <mxGeometry x="560" y="440" width="40" height="40" as="geometry" />
        </mxCell>
        <mxCell id="GjF9KbB1oHG8vixddbK--62" value="&lt;font style=&quot;font-size: 24px;&quot;&gt;3&lt;/font&gt;" style="text;align=center;html=1;verticalAlign=middle;whiteSpace=wrap;rounded=0;labelBackgroundColor=none;fontColor=#FFFFFF;" vertex="1" parent="1">
          <mxGeometry x="230" y="445" width="60" height="30" as="geometry" />
        </mxCell>
        <mxCell id="GjF9KbB1oHG8vixddbK--63" value="&lt;font style=&quot;font-size: 24px;&quot;&gt;8&lt;/font&gt;" style="text;align=center;html=1;verticalAlign=middle;whiteSpace=wrap;rounded=0;labelBackgroundColor=none;fontColor=#FFFFFF;" vertex="1" parent="1">
          <mxGeometry x="310" y="445" width="60" height="30" as="geometry" />
        </mxCell>
        <mxCell id="GjF9KbB1oHG8vixddbK--64" value="&lt;font style=&quot;font-size: 24px;&quot;&gt;10&lt;/font&gt;" style="text;align=center;html=1;verticalAlign=middle;whiteSpace=wrap;rounded=0;labelBackgroundColor=none;fontColor=#FFFFFF;" vertex="1" parent="1">
          <mxGeometry x="390" y="445" width="60" height="30" as="geometry" />
        </mxCell>
        <mxCell id="GjF9KbB1oHG8vixddbK--65" value="&lt;font style=&quot;font-size: 24px;&quot;&gt;44&lt;/font&gt;" style="text;align=center;html=1;verticalAlign=middle;whiteSpace=wrap;rounded=0;labelBackgroundColor=none;fontColor=#FFFFFF;" vertex="1" parent="1">
          <mxGeometry x="470" y="445" width="60" height="30" as="geometry" />
        </mxCell>
        <mxCell id="GjF9KbB1oHG8vixddbK--66" value="&lt;font style=&quot;font-size: 24px;&quot;&gt;50&lt;/font&gt;" style="text;align=center;html=1;verticalAlign=middle;whiteSpace=wrap;rounded=0;labelBackgroundColor=none;fontColor=#FFFFFF;" vertex="1" parent="1">
          <mxGeometry x="550" y="445" width="60" height="30" as="geometry" />
        </mxCell>
      </root>
    </mxGraphModel>
  </diagram>
  <diagram id="LmCp9MDjia62zqjfYy4H" name="Merge Sort">
    <mxGraphModel dx="883" dy="558" grid="1" gridSize="10" guides="1" tooltips="1" connect="1" arrows="1" fold="1" page="1" pageScale="1" pageWidth="827" pageHeight="1169" math="0" shadow="0">
      <root>
        <mxCell id="0" />
        <mxCell id="1" parent="0" />
        <mxCell id="adIKGytUIf83-U1ZNv9i-2" value="54" style="whiteSpace=wrap;html=1;aspect=fixed;strokeColor=#56517e;fillColor=#d0cee2;labelBackgroundColor=none;" vertex="1" parent="1">
          <mxGeometry x="240" y="80" width="40" height="40" as="geometry" />
        </mxCell>
        <mxCell id="adIKGytUIf83-U1ZNv9i-3" value="26" style="whiteSpace=wrap;html=1;aspect=fixed;strokeColor=#56517e;fillColor=#d0cee2;labelBackgroundColor=none;" vertex="1" parent="1">
          <mxGeometry x="280" y="80" width="40" height="40" as="geometry" />
        </mxCell>
        <mxCell id="adIKGytUIf83-U1ZNv9i-5" value="93" style="whiteSpace=wrap;html=1;aspect=fixed;strokeColor=#56517e;fillColor=#d0cee2;labelBackgroundColor=none;" vertex="1" parent="1">
          <mxGeometry x="320" y="80" width="40" height="40" as="geometry" />
        </mxCell>
        <mxCell id="adIKGytUIf83-U1ZNv9i-6" value="17" style="whiteSpace=wrap;html=1;aspect=fixed;strokeColor=#56517e;fillColor=#d0cee2;labelBackgroundColor=none;" vertex="1" parent="1">
          <mxGeometry x="360" y="80" width="40" height="40" as="geometry" />
        </mxCell>
        <mxCell id="adIKGytUIf83-U1ZNv9i-7" value="77" style="whiteSpace=wrap;html=1;aspect=fixed;strokeColor=#0F8B8D;fontColor=#143642;fillColor=#FAE5C7;labelBackgroundColor=none;" vertex="1" parent="1">
          <mxGeometry x="400" y="80" width="40" height="40" as="geometry" />
        </mxCell>
        <mxCell id="adIKGytUIf83-U1ZNv9i-8" value="31" style="whiteSpace=wrap;html=1;aspect=fixed;strokeColor=#0F8B8D;fontColor=#143642;fillColor=#FAE5C7;labelBackgroundColor=none;" vertex="1" parent="1">
          <mxGeometry x="440" y="80" width="40" height="40" as="geometry" />
        </mxCell>
        <mxCell id="adIKGytUIf83-U1ZNv9i-9" value="44" style="whiteSpace=wrap;html=1;aspect=fixed;strokeColor=#0F8B8D;fontColor=#143642;fillColor=#FAE5C7;labelBackgroundColor=none;" vertex="1" parent="1">
          <mxGeometry x="480" y="80" width="40" height="40" as="geometry" />
        </mxCell>
        <mxCell id="adIKGytUIf83-U1ZNv9i-10" value="55" style="whiteSpace=wrap;html=1;aspect=fixed;strokeColor=#0F8B8D;fontColor=#143642;fillColor=#FAE5C7;labelBackgroundColor=none;" vertex="1" parent="1">
          <mxGeometry x="520" y="80" width="40" height="40" as="geometry" />
        </mxCell>
        <mxCell id="adIKGytUIf83-U1ZNv9i-11" value="20" style="whiteSpace=wrap;html=1;aspect=fixed;strokeColor=#0F8B8D;fontColor=#143642;fillColor=#FAE5C7;labelBackgroundColor=none;" vertex="1" parent="1">
          <mxGeometry x="560" y="80" width="40" height="40" as="geometry" />
        </mxCell>
        <mxCell id="adIKGytUIf83-U1ZNv9i-13" value="54" style="whiteSpace=wrap;html=1;aspect=fixed;strokeColor=#56517e;fillColor=#d0cee2;labelBackgroundColor=none;" vertex="1" parent="1">
          <mxGeometry x="190" y="160" width="40" height="40" as="geometry" />
        </mxCell>
        <mxCell id="adIKGytUIf83-U1ZNv9i-14" value="26" style="whiteSpace=wrap;html=1;aspect=fixed;strokeColor=#56517e;fillColor=#d0cee2;labelBackgroundColor=none;" vertex="1" parent="1">
          <mxGeometry x="230" y="160" width="40" height="40" as="geometry" />
        </mxCell>
        <mxCell id="adIKGytUIf83-U1ZNv9i-15" value="93" style="whiteSpace=wrap;html=1;aspect=fixed;strokeColor=#0F8B8D;fontColor=#143642;fillColor=#FAE5C7;labelBackgroundColor=none;" vertex="1" parent="1">
          <mxGeometry x="270" y="160" width="40" height="40" as="geometry" />
        </mxCell>
        <mxCell id="adIKGytUIf83-U1ZNv9i-16" value="17" style="whiteSpace=wrap;html=1;aspect=fixed;strokeColor=#0F8B8D;fontColor=#143642;fillColor=#FAE5C7;labelBackgroundColor=none;" vertex="1" parent="1">
          <mxGeometry x="310" y="160" width="40" height="40" as="geometry" />
        </mxCell>
        <mxCell id="adIKGytUIf83-U1ZNv9i-17" value="31" style="whiteSpace=wrap;html=1;aspect=fixed;strokeColor=#56517e;fillColor=#d0cee2;labelBackgroundColor=none;" vertex="1" parent="1">
          <mxGeometry x="510" y="160" width="40" height="40" as="geometry" />
        </mxCell>
        <mxCell id="adIKGytUIf83-U1ZNv9i-18" value="44" style="whiteSpace=wrap;html=1;aspect=fixed;strokeColor=#0F8B8D;fontColor=#143642;fillColor=#FAE5C7;labelBackgroundColor=none;" vertex="1" parent="1">
          <mxGeometry x="550" y="160" width="40" height="40" as="geometry" />
        </mxCell>
        <mxCell id="adIKGytUIf83-U1ZNv9i-19" value="55" style="whiteSpace=wrap;html=1;aspect=fixed;strokeColor=#0F8B8D;fontColor=#143642;fillColor=#FAE5C7;labelBackgroundColor=none;" vertex="1" parent="1">
          <mxGeometry x="590" y="160" width="40" height="40" as="geometry" />
        </mxCell>
        <mxCell id="adIKGytUIf83-U1ZNv9i-20" value="20" style="whiteSpace=wrap;html=1;aspect=fixed;strokeColor=#0F8B8D;fontColor=#143642;fillColor=#FAE5C7;labelBackgroundColor=none;" vertex="1" parent="1">
          <mxGeometry x="630" y="160" width="40" height="40" as="geometry" />
        </mxCell>
        <mxCell id="adIKGytUIf83-U1ZNv9i-21" value="54" style="whiteSpace=wrap;html=1;aspect=fixed;strokeColor=#56517e;fillColor=#d0cee2;labelBackgroundColor=none;" vertex="1" parent="1">
          <mxGeometry x="170" y="240" width="40" height="40" as="geometry" />
        </mxCell>
        <mxCell id="adIKGytUIf83-U1ZNv9i-22" value="26" style="whiteSpace=wrap;html=1;aspect=fixed;strokeColor=#0F8B8D;fontColor=#143642;fillColor=#FAE5C7;labelBackgroundColor=none;" vertex="1" parent="1">
          <mxGeometry x="210" y="240" width="40" height="40" as="geometry" />
        </mxCell>
        <mxCell id="adIKGytUIf83-U1ZNv9i-23" value="55" style="whiteSpace=wrap;html=1;aspect=fixed;strokeColor=#0F8B8D;fontColor=#143642;fillColor=#FAE5C7;labelBackgroundColor=none;" vertex="1" parent="1">
          <mxGeometry x="620" y="240" width="40" height="40" as="geometry" />
        </mxCell>
        <mxCell id="adIKGytUIf83-U1ZNv9i-24" value="20" style="whiteSpace=wrap;html=1;aspect=fixed;strokeColor=#0F8B8D;fontColor=#143642;fillColor=#FAE5C7;labelBackgroundColor=none;" vertex="1" parent="1">
          <mxGeometry x="660" y="240" width="40" height="40" as="geometry" />
        </mxCell>
        <mxCell id="adIKGytUIf83-U1ZNv9i-25" value="93" style="whiteSpace=wrap;html=1;aspect=fixed;strokeColor=#0F8B8D;fontColor=#143642;fillColor=#FAE5C7;labelBackgroundColor=none;" vertex="1" parent="1">
          <mxGeometry x="290" y="240" width="40" height="40" as="geometry" />
        </mxCell>
        <mxCell id="adIKGytUIf83-U1ZNv9i-26" value="17" style="whiteSpace=wrap;html=1;aspect=fixed;strokeColor=#0F8B8D;fontColor=#143642;fillColor=#FAE5C7;labelBackgroundColor=none;" vertex="1" parent="1">
          <mxGeometry x="330" y="240" width="40" height="40" as="geometry" />
        </mxCell>
        <mxCell id="adIKGytUIf83-U1ZNv9i-27" value="31" style="whiteSpace=wrap;html=1;aspect=fixed;strokeColor=#0F8B8D;fontColor=#143642;fillColor=#FAE5C7;labelBackgroundColor=none;" vertex="1" parent="1">
          <mxGeometry x="500" y="240" width="40" height="40" as="geometry" />
        </mxCell>
        <mxCell id="adIKGytUIf83-U1ZNv9i-28" value="44" style="whiteSpace=wrap;html=1;aspect=fixed;strokeColor=#56517e;fillColor=#d0cee2;labelBackgroundColor=none;" vertex="1" parent="1">
          <mxGeometry x="580" y="240" width="40" height="40" as="geometry" />
        </mxCell>
        <mxCell id="adIKGytUIf83-U1ZNv9i-29" value="17" style="whiteSpace=wrap;html=1;aspect=fixed;strokeColor=#0F8B8D;fontColor=#143642;fillColor=#FAE5C7;labelBackgroundColor=none;" vertex="1" parent="1">
          <mxGeometry x="340" y="320" width="40" height="40" as="geometry" />
        </mxCell>
        <mxCell id="adIKGytUIf83-U1ZNv9i-30" value="31" style="whiteSpace=wrap;html=1;aspect=fixed;strokeColor=#0F8B8D;fontColor=#143642;fillColor=#FAE5C7;labelBackgroundColor=none;" vertex="1" parent="1">
          <mxGeometry x="510" y="320" width="40" height="40" as="geometry" />
        </mxCell>
        <mxCell id="adIKGytUIf83-U1ZNv9i-32" value="93" style="whiteSpace=wrap;html=1;aspect=fixed;strokeColor=#0F8B8D;fontColor=#143642;fillColor=#FAE5C7;labelBackgroundColor=none;" vertex="1" parent="1">
          <mxGeometry x="280" y="320" width="40" height="40" as="geometry" />
        </mxCell>
        <mxCell id="adIKGytUIf83-U1ZNv9i-33" value="26" style="whiteSpace=wrap;html=1;aspect=fixed;strokeColor=#0F8B8D;fontColor=#143642;fillColor=#FAE5C7;labelBackgroundColor=none;" vertex="1" parent="1">
          <mxGeometry x="220" y="320" width="40" height="40" as="geometry" />
        </mxCell>
        <mxCell id="adIKGytUIf83-U1ZNv9i-34" value="54" style="whiteSpace=wrap;html=1;aspect=fixed;strokeColor=#0F8B8D;fontColor=#143642;fillColor=#FAE5C7;labelBackgroundColor=none;" vertex="1" parent="1">
          <mxGeometry x="160" y="320" width="40" height="40" as="geometry" />
        </mxCell>
        <mxCell id="adIKGytUIf83-U1ZNv9i-35" value="44" style="whiteSpace=wrap;html=1;aspect=fixed;strokeColor=#0F8B8D;fontColor=#143642;fillColor=#FAE5C7;labelBackgroundColor=none;" vertex="1" parent="1">
          <mxGeometry x="570" y="320" width="40" height="40" as="geometry" />
        </mxCell>
        <mxCell id="adIKGytUIf83-U1ZNv9i-36" value="55" style="whiteSpace=wrap;html=1;aspect=fixed;strokeColor=#56517e;fillColor=#d0cee2;labelBackgroundColor=none;" vertex="1" parent="1">
          <mxGeometry x="630" y="320" width="40" height="40" as="geometry" />
        </mxCell>
        <mxCell id="adIKGytUIf83-U1ZNv9i-37" value="20" style="whiteSpace=wrap;html=1;aspect=fixed;strokeColor=#0F8B8D;fontColor=#143642;fillColor=#FAE5C7;labelBackgroundColor=none;" vertex="1" parent="1">
          <mxGeometry x="670" y="320" width="40" height="40" as="geometry" />
        </mxCell>
        <mxCell id="adIKGytUIf83-U1ZNv9i-38" value="77" style="whiteSpace=wrap;html=1;aspect=fixed;strokeColor=#56517e;fillColor=#d0cee2;labelBackgroundColor=none;" vertex="1" parent="1">
          <mxGeometry x="470" y="160" width="40" height="40" as="geometry" />
        </mxCell>
        <mxCell id="adIKGytUIf83-U1ZNv9i-39" value="77" style="whiteSpace=wrap;html=1;aspect=fixed;strokeColor=#56517e;fillColor=#d0cee2;labelBackgroundColor=none;" vertex="1" parent="1">
          <mxGeometry x="460" y="240" width="40" height="40" as="geometry" />
        </mxCell>
        <mxCell id="adIKGytUIf83-U1ZNv9i-41" value="77" style="whiteSpace=wrap;html=1;aspect=fixed;strokeColor=#0F8B8D;fontColor=#143642;fillColor=#FAE5C7;labelBackgroundColor=none;" vertex="1" parent="1">
          <mxGeometry x="450" y="320" width="40" height="40" as="geometry" />
        </mxCell>
        <mxCell id="adIKGytUIf83-U1ZNv9i-43" value="55" style="whiteSpace=wrap;html=1;aspect=fixed;strokeColor=#0F8B8D;fontColor=#143642;fillColor=#FAE5C7;labelBackgroundColor=none;" vertex="1" parent="1">
          <mxGeometry x="620" y="400" width="40" height="40" as="geometry" />
        </mxCell>
        <mxCell id="adIKGytUIf83-U1ZNv9i-44" value="20" style="whiteSpace=wrap;html=1;aspect=fixed;strokeColor=#0F8B8D;fontColor=#143642;fillColor=#FAE5C7;labelBackgroundColor=none;" vertex="1" parent="1">
          <mxGeometry x="680" y="400" width="40" height="40" as="geometry" />
        </mxCell>
        <mxCell id="adIKGytUIf83-U1ZNv9i-45" value="" style="endArrow=classic;html=1;rounded=0;strokeColor=#56517e;fontColor=#143642;fillColor=#d0cee2;edgeStyle=orthogonalEdgeStyle;" edge="1" parent="1">
          <mxGeometry width="50" height="50" relative="1" as="geometry">
            <mxPoint x="320" y="120" as="sourcePoint" />
            <mxPoint x="270" y="150" as="targetPoint" />
            <Array as="points">
              <mxPoint x="320" y="130" />
              <mxPoint x="270" y="130" />
              <mxPoint x="270" y="150" />
            </Array>
          </mxGeometry>
        </mxCell>
        <mxCell id="adIKGytUIf83-U1ZNv9i-46" value="" style="endArrow=classic;html=1;rounded=0;strokeColor=#56517e;fontColor=#143642;fillColor=#d0cee2;edgeStyle=orthogonalEdgeStyle;" edge="1" parent="1">
          <mxGeometry width="50" height="50" relative="1" as="geometry">
            <mxPoint x="230" y="200" as="sourcePoint" />
            <mxPoint x="210" y="230" as="targetPoint" />
            <Array as="points">
              <mxPoint x="230" y="200" />
              <mxPoint x="230" y="210" />
              <mxPoint x="210" y="210" />
            </Array>
          </mxGeometry>
        </mxCell>
        <mxCell id="adIKGytUIf83-U1ZNv9i-47" value="" style="endArrow=classic;html=1;rounded=0;strokeColor=#56517e;fontColor=#143642;fillColor=#d0cee2;edgeStyle=orthogonalEdgeStyle;" edge="1" parent="1">
          <mxGeometry width="50" height="50" relative="1" as="geometry">
            <mxPoint x="310" y="200" as="sourcePoint" />
            <mxPoint x="330" y="230" as="targetPoint" />
            <Array as="points">
              <mxPoint x="310" y="210" />
              <mxPoint x="330" y="210" />
              <mxPoint x="330" y="230" />
            </Array>
          </mxGeometry>
        </mxCell>
        <mxCell id="adIKGytUIf83-U1ZNv9i-48" value="" style="endArrow=classic;html=1;rounded=0;strokeColor=#56517e;fontColor=#143642;fillColor=#d0cee2;edgeStyle=orthogonalEdgeStyle;" edge="1" parent="1">
          <mxGeometry width="50" height="50" relative="1" as="geometry">
            <mxPoint x="350" y="280" as="sourcePoint" />
            <mxPoint x="360" y="310" as="targetPoint" />
            <Array as="points">
              <mxPoint x="350" y="290" />
              <mxPoint x="360" y="290" />
              <mxPoint x="360" y="310" />
            </Array>
          </mxGeometry>
        </mxCell>
        <mxCell id="adIKGytUIf83-U1ZNv9i-49" value="" style="endArrow=classic;html=1;rounded=0;strokeColor=#56517e;fontColor=#143642;fillColor=#d0cee2;edgeStyle=orthogonalEdgeStyle;" edge="1" parent="1">
          <mxGeometry width="50" height="50" relative="1" as="geometry">
            <mxPoint x="230" y="280" as="sourcePoint" />
            <mxPoint x="240" y="310" as="targetPoint" />
            <Array as="points">
              <mxPoint x="230" y="290" />
              <mxPoint x="240" y="290" />
              <mxPoint x="240" y="310" />
            </Array>
          </mxGeometry>
        </mxCell>
        <mxCell id="adIKGytUIf83-U1ZNv9i-50" value="" style="endArrow=classic;html=1;rounded=0;strokeColor=#56517e;fontColor=#143642;fillColor=#d0cee2;edgeStyle=orthogonalEdgeStyle;" edge="1" parent="1">
          <mxGeometry width="50" height="50" relative="1" as="geometry">
            <mxPoint x="520" y="280" as="sourcePoint" />
            <mxPoint x="530" y="310" as="targetPoint" />
            <Array as="points">
              <mxPoint x="520" y="290" />
              <mxPoint x="530" y="290" />
              <mxPoint x="530" y="310" />
            </Array>
          </mxGeometry>
        </mxCell>
        <mxCell id="adIKGytUIf83-U1ZNv9i-51" value="" style="endArrow=classic;html=1;rounded=0;strokeColor=#56517e;fontColor=#143642;fillColor=#d0cee2;edgeStyle=orthogonalEdgeStyle;" edge="1" parent="1">
          <mxGeometry width="50" height="50" relative="1" as="geometry">
            <mxPoint x="690" y="360" as="sourcePoint" />
            <mxPoint x="700" y="390" as="targetPoint" />
            <Array as="points">
              <mxPoint x="690" y="370" />
              <mxPoint x="700" y="370" />
              <mxPoint x="700" y="390" />
            </Array>
          </mxGeometry>
        </mxCell>
        <mxCell id="adIKGytUIf83-U1ZNv9i-52" value="" style="endArrow=classic;html=1;rounded=0;strokeColor=#56517e;fontColor=#143642;fillColor=#d0cee2;edgeStyle=orthogonalEdgeStyle;" edge="1" parent="1">
          <mxGeometry width="50" height="50" relative="1" as="geometry">
            <mxPoint x="610" y="200" as="sourcePoint" />
            <mxPoint x="640" y="230" as="targetPoint" />
            <Array as="points">
              <mxPoint x="610" y="210" />
              <mxPoint x="640" y="210" />
              <mxPoint x="640" y="230" />
            </Array>
          </mxGeometry>
        </mxCell>
        <mxCell id="adIKGytUIf83-U1ZNv9i-53" value="" style="endArrow=classic;html=1;rounded=0;strokeColor=#56517e;fontColor=#143642;fillColor=#d0cee2;edgeStyle=orthogonalEdgeStyle;" edge="1" parent="1">
          <mxGeometry width="50" height="50" relative="1" as="geometry">
            <mxPoint x="660" y="280" as="sourcePoint" />
            <mxPoint x="670" y="310" as="targetPoint" />
            <Array as="points">
              <mxPoint x="660" y="290" />
              <mxPoint x="670" y="290" />
              <mxPoint x="670" y="310" />
            </Array>
          </mxGeometry>
        </mxCell>
        <mxCell id="adIKGytUIf83-U1ZNv9i-54" value="" style="endArrow=classic;html=1;rounded=0;strokeColor=#56517e;fontColor=#143642;fillColor=#d0cee2;edgeStyle=orthogonalEdgeStyle;" edge="1" parent="1">
          <mxGeometry width="50" height="50" relative="1" as="geometry">
            <mxPoint x="310" y="280" as="sourcePoint" />
            <mxPoint x="300" y="310" as="targetPoint" />
            <Array as="points">
              <mxPoint x="310" y="290" />
              <mxPoint x="300" y="290" />
              <mxPoint x="300" y="310" />
            </Array>
          </mxGeometry>
        </mxCell>
        <mxCell id="adIKGytUIf83-U1ZNv9i-55" value="" style="endArrow=classic;html=1;rounded=0;strokeColor=#56517e;fontColor=#143642;fillColor=#d0cee2;edgeStyle=orthogonalEdgeStyle;" edge="1" parent="1">
          <mxGeometry width="50" height="50" relative="1" as="geometry">
            <mxPoint x="190" y="280" as="sourcePoint" />
            <mxPoint x="180" y="310" as="targetPoint" />
            <Array as="points">
              <mxPoint x="190" y="290" />
              <mxPoint x="180" y="290" />
              <mxPoint x="180" y="310" />
            </Array>
          </mxGeometry>
        </mxCell>
        <mxCell id="adIKGytUIf83-U1ZNv9i-56" value="" style="endArrow=classic;html=1;rounded=0;strokeColor=#56517e;fontColor=#143642;fillColor=#d0cee2;edgeStyle=orthogonalEdgeStyle;" edge="1" parent="1">
          <mxGeometry width="50" height="50" relative="1" as="geometry">
            <mxPoint x="480" y="280" as="sourcePoint" />
            <mxPoint x="470" y="310" as="targetPoint" />
            <Array as="points">
              <mxPoint x="480" y="290" />
              <mxPoint x="470" y="290" />
              <mxPoint x="470" y="310" />
            </Array>
          </mxGeometry>
        </mxCell>
        <mxCell id="adIKGytUIf83-U1ZNv9i-57" value="" style="endArrow=classic;html=1;rounded=0;strokeColor=#56517e;fontColor=#143642;fillColor=#d0cee2;edgeStyle=orthogonalEdgeStyle;" edge="1" parent="1">
          <mxGeometry width="50" height="50" relative="1" as="geometry">
            <mxPoint x="600" y="280" as="sourcePoint" />
            <mxPoint x="590" y="310" as="targetPoint" />
            <Array as="points">
              <mxPoint x="600" y="290" />
              <mxPoint x="590" y="290" />
            </Array>
          </mxGeometry>
        </mxCell>
        <mxCell id="adIKGytUIf83-U1ZNv9i-58" value="" style="endArrow=classic;html=1;rounded=0;strokeColor=#56517e;fontColor=#143642;fillColor=#d0cee2;edgeStyle=orthogonalEdgeStyle;" edge="1" parent="1">
          <mxGeometry width="50" height="50" relative="1" as="geometry">
            <mxPoint x="645" y="360" as="sourcePoint" />
            <mxPoint x="635" y="390" as="targetPoint" />
            <Array as="points">
              <mxPoint x="645" y="370" />
              <mxPoint x="635" y="370" />
              <mxPoint x="635" y="390" />
            </Array>
          </mxGeometry>
        </mxCell>
        <mxCell id="adIKGytUIf83-U1ZNv9i-59" value="" style="endArrow=classic;html=1;rounded=0;strokeColor=#56517e;fontColor=#143642;fillColor=#d0cee2;edgeStyle=orthogonalEdgeStyle;" edge="1" parent="1">
          <mxGeometry width="50" height="50" relative="1" as="geometry">
            <mxPoint x="510" y="200" as="sourcePoint" />
            <mxPoint x="500" y="230" as="targetPoint" />
            <Array as="points">
              <mxPoint x="510" y="210" />
              <mxPoint x="500" y="210" />
              <mxPoint x="500" y="230" />
            </Array>
          </mxGeometry>
        </mxCell>
        <mxCell id="adIKGytUIf83-U1ZNv9i-60" value="" style="endArrow=classic;html=1;rounded=0;strokeColor=#56517e;fontColor=#143642;fillColor=#d0cee2;edgeStyle=orthogonalEdgeStyle;" edge="1" parent="1">
          <mxGeometry width="50" height="50" relative="1" as="geometry">
            <mxPoint x="499.97" y="120" as="sourcePoint" />
            <mxPoint x="570" y="150" as="targetPoint" />
            <Array as="points">
              <mxPoint x="500" y="130" />
              <mxPoint x="570" y="130" />
              <mxPoint x="570" y="150" />
            </Array>
          </mxGeometry>
        </mxCell>
      </root>
    </mxGraphModel>
  </diagram>
  <diagram id="izlxhnBPLSKlB6AEYwSb" name="Merge Sort 2">
    <mxGraphModel dx="1060" dy="669" grid="1" gridSize="10" guides="1" tooltips="1" connect="1" arrows="1" fold="1" page="1" pageScale="1" pageWidth="827" pageHeight="1169" math="0" shadow="0">
      <root>
        <mxCell id="0" />
        <mxCell id="1" parent="0" />
        <mxCell id="0oPSDTxZOHHm6pKs5NPg-26" value="17" style="whiteSpace=wrap;html=1;aspect=fixed;strokeColor=#0F8B8D;fontColor=#143642;fillColor=#FAE5C7;labelBackgroundColor=none;" vertex="1" parent="1">
          <mxGeometry x="304" y="200" width="40" height="40" as="geometry" />
        </mxCell>
        <mxCell id="0oPSDTxZOHHm6pKs5NPg-27" value="31" style="whiteSpace=wrap;html=1;aspect=fixed;strokeColor=#0F8B8D;fontColor=#143642;fillColor=#FAE5C7;labelBackgroundColor=none;" vertex="1" parent="1">
          <mxGeometry x="474" y="200" width="40" height="40" as="geometry" />
        </mxCell>
        <mxCell id="0oPSDTxZOHHm6pKs5NPg-28" value="93" style="whiteSpace=wrap;html=1;aspect=fixed;strokeColor=#0F8B8D;fontColor=#143642;fillColor=#FAE5C7;labelBackgroundColor=none;" vertex="1" parent="1">
          <mxGeometry x="244" y="200" width="40" height="40" as="geometry" />
        </mxCell>
        <mxCell id="0oPSDTxZOHHm6pKs5NPg-29" value="26" style="whiteSpace=wrap;html=1;aspect=fixed;strokeColor=#0F8B8D;fontColor=#143642;fillColor=#FAE5C7;labelBackgroundColor=none;" vertex="1" parent="1">
          <mxGeometry x="184" y="200" width="40" height="40" as="geometry" />
        </mxCell>
        <mxCell id="0oPSDTxZOHHm6pKs5NPg-30" value="54" style="whiteSpace=wrap;html=1;aspect=fixed;strokeColor=#0F8B8D;fontColor=#143642;fillColor=#FAE5C7;labelBackgroundColor=none;" vertex="1" parent="1">
          <mxGeometry x="124" y="200" width="40" height="40" as="geometry" />
        </mxCell>
        <mxCell id="0oPSDTxZOHHm6pKs5NPg-31" value="44" style="whiteSpace=wrap;html=1;aspect=fixed;strokeColor=#0F8B8D;fontColor=#143642;fillColor=#FAE5C7;labelBackgroundColor=none;" vertex="1" parent="1">
          <mxGeometry x="544" y="200" width="40" height="40" as="geometry" />
        </mxCell>
        <mxCell id="0oPSDTxZOHHm6pKs5NPg-36" value="77" style="whiteSpace=wrap;html=1;aspect=fixed;strokeColor=#0F8B8D;fontColor=#143642;fillColor=#FAE5C7;labelBackgroundColor=none;" vertex="1" parent="1">
          <mxGeometry x="414" y="200" width="40" height="40" as="geometry" />
        </mxCell>
        <mxCell id="0oPSDTxZOHHm6pKs5NPg-37" value="55" style="whiteSpace=wrap;html=1;aspect=fixed;strokeColor=#0F8B8D;fontColor=#143642;fillColor=#FAE5C7;labelBackgroundColor=none;" vertex="1" parent="1">
          <mxGeometry x="604" y="200" width="40" height="40" as="geometry" />
        </mxCell>
        <mxCell id="0oPSDTxZOHHm6pKs5NPg-38" value="20" style="whiteSpace=wrap;html=1;aspect=fixed;strokeColor=#0F8B8D;fontColor=#143642;fillColor=#FAE5C7;labelBackgroundColor=none;" vertex="1" parent="1">
          <mxGeometry x="664" y="200" width="40" height="40" as="geometry" />
        </mxCell>
        <mxCell id="0oPSDTxZOHHm6pKs5NPg-55" value="" style="endArrow=classic;html=1;rounded=0;strokeColor=#b46504;fontColor=#143642;fillColor=#fad7ac;" edge="1" parent="1">
          <mxGeometry width="50" height="50" relative="1" as="geometry">
            <mxPoint x="174" y="260" as="sourcePoint" />
            <mxPoint x="174" y="280" as="targetPoint" />
          </mxGeometry>
        </mxCell>
        <mxCell id="0oPSDTxZOHHm6pKs5NPg-56" value="" style="endArrow=none;html=1;rounded=0;strokeColor=#b46504;fontColor=#143642;fillColor=#fad7ac;edgeStyle=orthogonalEdgeStyle;entryX=0.5;entryY=1;entryDx=0;entryDy=0;exitX=0.5;exitY=1;exitDx=0;exitDy=0;" edge="1" parent="1" source="0oPSDTxZOHHm6pKs5NPg-30" target="0oPSDTxZOHHm6pKs5NPg-29">
          <mxGeometry width="50" height="50" relative="1" as="geometry">
            <mxPoint x="144" y="260" as="sourcePoint" />
            <mxPoint x="204" y="260" as="targetPoint" />
            <Array as="points">
              <mxPoint x="144" y="260" />
              <mxPoint x="204" y="260" />
            </Array>
          </mxGeometry>
        </mxCell>
        <mxCell id="0oPSDTxZOHHm6pKs5NPg-57" value="54" style="whiteSpace=wrap;html=1;aspect=fixed;strokeColor=#0F8B8D;fontColor=#143642;fillColor=#FAE5C7;labelBackgroundColor=none;" vertex="1" parent="1">
          <mxGeometry x="174" y="290" width="40" height="40" as="geometry" />
        </mxCell>
        <mxCell id="0oPSDTxZOHHm6pKs5NPg-58" value="26" style="whiteSpace=wrap;html=1;aspect=fixed;strokeColor=#0F8B8D;fontColor=#143642;fillColor=#FAE5C7;labelBackgroundColor=none;" vertex="1" parent="1">
          <mxGeometry x="134" y="290" width="40" height="40" as="geometry" />
        </mxCell>
        <mxCell id="0oPSDTxZOHHm6pKs5NPg-59" value="" style="endArrow=classic;html=1;rounded=0;strokeColor=#b46504;fontColor=#143642;fillColor=#fad7ac;" edge="1" parent="1">
          <mxGeometry width="50" height="50" relative="1" as="geometry">
            <mxPoint x="294" y="260" as="sourcePoint" />
            <mxPoint x="294" y="280" as="targetPoint" />
          </mxGeometry>
        </mxCell>
        <mxCell id="0oPSDTxZOHHm6pKs5NPg-60" value="" style="endArrow=none;html=1;rounded=0;strokeColor=#b46504;fontColor=#143642;fillColor=#fad7ac;edgeStyle=orthogonalEdgeStyle;entryX=0.5;entryY=1;entryDx=0;entryDy=0;exitX=0.5;exitY=1;exitDx=0;exitDy=0;" edge="1" parent="1">
          <mxGeometry width="50" height="50" relative="1" as="geometry">
            <mxPoint x="264" y="240" as="sourcePoint" />
            <mxPoint x="324" y="240" as="targetPoint" />
            <Array as="points">
              <mxPoint x="264" y="260" />
              <mxPoint x="324" y="260" />
            </Array>
          </mxGeometry>
        </mxCell>
        <mxCell id="0oPSDTxZOHHm6pKs5NPg-61" value="17" style="whiteSpace=wrap;html=1;aspect=fixed;strokeColor=#0F8B8D;fontColor=#143642;fillColor=#FAE5C7;labelBackgroundColor=none;" vertex="1" parent="1">
          <mxGeometry x="254" y="290" width="40" height="40" as="geometry" />
        </mxCell>
        <mxCell id="0oPSDTxZOHHm6pKs5NPg-62" value="93" style="whiteSpace=wrap;html=1;aspect=fixed;strokeColor=#0F8B8D;fontColor=#143642;fillColor=#FAE5C7;labelBackgroundColor=none;" vertex="1" parent="1">
          <mxGeometry x="294" y="290" width="40" height="40" as="geometry" />
        </mxCell>
        <mxCell id="0oPSDTxZOHHm6pKs5NPg-65" value="" style="endArrow=classic;html=1;rounded=0;strokeColor=#b46504;fontColor=#143642;fillColor=#fad7ac;" edge="1" parent="1">
          <mxGeometry width="50" height="50" relative="1" as="geometry">
            <mxPoint x="229.71999999999997" y="350" as="sourcePoint" />
            <mxPoint x="229.71999999999997" y="370" as="targetPoint" />
          </mxGeometry>
        </mxCell>
        <mxCell id="0oPSDTxZOHHm6pKs5NPg-66" value="" style="endArrow=none;html=1;rounded=0;strokeColor=#b46504;fontColor=#143642;fillColor=#fad7ac;edgeStyle=orthogonalEdgeStyle;entryX=0;entryY=1;entryDx=0;entryDy=0;exitX=0.5;exitY=1;exitDx=0;exitDy=0;" edge="1" parent="1" target="0oPSDTxZOHHm6pKs5NPg-62">
          <mxGeometry width="50" height="50" relative="1" as="geometry">
            <mxPoint x="174" y="330" as="sourcePoint" />
            <mxPoint x="234" y="330" as="targetPoint" />
            <Array as="points">
              <mxPoint x="174" y="350" />
              <mxPoint x="294" y="350" />
            </Array>
          </mxGeometry>
        </mxCell>
        <mxCell id="0oPSDTxZOHHm6pKs5NPg-67" value="17" style="whiteSpace=wrap;html=1;aspect=fixed;strokeColor=#0F8B8D;fontColor=#143642;fillColor=#FAE5C7;labelBackgroundColor=none;" vertex="1" parent="1">
          <mxGeometry x="150" y="380" width="40" height="40" as="geometry" />
        </mxCell>
        <mxCell id="0oPSDTxZOHHm6pKs5NPg-68" value="26" style="whiteSpace=wrap;html=1;aspect=fixed;strokeColor=#0F8B8D;fontColor=#143642;fillColor=#FAE5C7;labelBackgroundColor=none;" vertex="1" parent="1">
          <mxGeometry x="190" y="380" width="40" height="40" as="geometry" />
        </mxCell>
        <mxCell id="0oPSDTxZOHHm6pKs5NPg-69" value="54" style="whiteSpace=wrap;html=1;aspect=fixed;strokeColor=#0F8B8D;fontColor=#143642;fillColor=#FAE5C7;labelBackgroundColor=none;" vertex="1" parent="1">
          <mxGeometry x="230" y="380" width="40" height="40" as="geometry" />
        </mxCell>
        <mxCell id="0oPSDTxZOHHm6pKs5NPg-70" value="93" style="whiteSpace=wrap;html=1;aspect=fixed;strokeColor=#0F8B8D;fontColor=#143642;fillColor=#FAE5C7;labelBackgroundColor=none;" vertex="1" parent="1">
          <mxGeometry x="270" y="380" width="40" height="40" as="geometry" />
        </mxCell>
        <mxCell id="0oPSDTxZOHHm6pKs5NPg-71" value="" style="endArrow=classic;html=1;rounded=0;strokeColor=#b46504;fontColor=#143642;fillColor=#fad7ac;" edge="1" parent="1">
          <mxGeometry width="50" height="50" relative="1" as="geometry">
            <mxPoint x="464" y="260" as="sourcePoint" />
            <mxPoint x="464" y="280" as="targetPoint" />
          </mxGeometry>
        </mxCell>
        <mxCell id="0oPSDTxZOHHm6pKs5NPg-72" value="" style="endArrow=none;html=1;rounded=0;strokeColor=#b46504;fontColor=#143642;fillColor=#fad7ac;edgeStyle=orthogonalEdgeStyle;entryX=0.5;entryY=1;entryDx=0;entryDy=0;exitX=0.5;exitY=1;exitDx=0;exitDy=0;" edge="1" parent="1">
          <mxGeometry width="50" height="50" relative="1" as="geometry">
            <mxPoint x="434" y="240" as="sourcePoint" />
            <mxPoint x="494" y="240" as="targetPoint" />
            <Array as="points">
              <mxPoint x="434" y="260" />
              <mxPoint x="494" y="260" />
            </Array>
          </mxGeometry>
        </mxCell>
        <mxCell id="0oPSDTxZOHHm6pKs5NPg-73" value="31" style="whiteSpace=wrap;html=1;aspect=fixed;strokeColor=#0F8B8D;fontColor=#143642;fillColor=#FAE5C7;labelBackgroundColor=none;" vertex="1" parent="1">
          <mxGeometry x="424" y="290" width="40" height="40" as="geometry" />
        </mxCell>
        <mxCell id="0oPSDTxZOHHm6pKs5NPg-74" value="77" style="whiteSpace=wrap;html=1;aspect=fixed;strokeColor=#0F8B8D;fontColor=#143642;fillColor=#FAE5C7;labelBackgroundColor=none;" vertex="1" parent="1">
          <mxGeometry x="464" y="290" width="40" height="40" as="geometry" />
        </mxCell>
        <mxCell id="0oPSDTxZOHHm6pKs5NPg-76" value="" style="endArrow=classic;html=1;rounded=0;strokeColor=#b46504;fontColor=#143642;fillColor=#fad7ac;" edge="1" parent="1">
          <mxGeometry width="50" height="50" relative="1" as="geometry">
            <mxPoint x="654" y="260" as="sourcePoint" />
            <mxPoint x="654" y="280" as="targetPoint" />
          </mxGeometry>
        </mxCell>
        <mxCell id="0oPSDTxZOHHm6pKs5NPg-77" value="" style="endArrow=none;html=1;rounded=0;strokeColor=#b46504;fontColor=#143642;fillColor=#fad7ac;edgeStyle=orthogonalEdgeStyle;entryX=0.5;entryY=1;entryDx=0;entryDy=0;exitX=0.5;exitY=1;exitDx=0;exitDy=0;" edge="1" parent="1">
          <mxGeometry width="50" height="50" relative="1" as="geometry">
            <mxPoint x="624" y="240" as="sourcePoint" />
            <mxPoint x="684" y="240" as="targetPoint" />
            <Array as="points">
              <mxPoint x="624" y="260" />
              <mxPoint x="684" y="260" />
            </Array>
          </mxGeometry>
        </mxCell>
        <mxCell id="0oPSDTxZOHHm6pKs5NPg-78" value="20" style="whiteSpace=wrap;html=1;aspect=fixed;strokeColor=#0F8B8D;fontColor=#143642;fillColor=#FAE5C7;labelBackgroundColor=none;" vertex="1" parent="1">
          <mxGeometry x="614" y="290" width="40" height="40" as="geometry" />
        </mxCell>
        <mxCell id="0oPSDTxZOHHm6pKs5NPg-79" value="55" style="whiteSpace=wrap;html=1;aspect=fixed;strokeColor=#0F8B8D;fontColor=#143642;fillColor=#FAE5C7;labelBackgroundColor=none;" vertex="1" parent="1">
          <mxGeometry x="654" y="290" width="40" height="40" as="geometry" />
        </mxCell>
        <mxCell id="0oPSDTxZOHHm6pKs5NPg-80" value="" style="endArrow=classic;html=1;rounded=0;strokeColor=#b46504;fontColor=#143642;fillColor=#fad7ac;" edge="1" parent="1">
          <mxGeometry width="50" height="50" relative="1" as="geometry">
            <mxPoint x="624" y="350" as="sourcePoint" />
            <mxPoint x="624" y="370" as="targetPoint" />
          </mxGeometry>
        </mxCell>
        <mxCell id="0oPSDTxZOHHm6pKs5NPg-81" value="" style="endArrow=none;html=1;rounded=0;strokeColor=#b46504;fontColor=#143642;fillColor=#fad7ac;edgeStyle=orthogonalEdgeStyle;entryX=0.5;entryY=1;entryDx=0;entryDy=0;exitX=0.5;exitY=1;exitDx=0;exitDy=0;" edge="1" parent="1" source="0oPSDTxZOHHm6pKs5NPg-31">
          <mxGeometry width="50" height="50" relative="1" as="geometry">
            <mxPoint x="594" y="330" as="sourcePoint" />
            <mxPoint x="654" y="330" as="targetPoint" />
            <Array as="points">
              <mxPoint x="564" y="350" />
              <mxPoint x="654" y="350" />
            </Array>
          </mxGeometry>
        </mxCell>
        <mxCell id="0oPSDTxZOHHm6pKs5NPg-82" value="20" style="whiteSpace=wrap;html=1;aspect=fixed;strokeColor=#0F8B8D;fontColor=#143642;fillColor=#FAE5C7;labelBackgroundColor=none;" vertex="1" parent="1">
          <mxGeometry x="564" y="380" width="40" height="40" as="geometry" />
        </mxCell>
        <mxCell id="0oPSDTxZOHHm6pKs5NPg-83" value="44" style="whiteSpace=wrap;html=1;aspect=fixed;strokeColor=#0F8B8D;fontColor=#143642;fillColor=#FAE5C7;labelBackgroundColor=none;" vertex="1" parent="1">
          <mxGeometry x="604" y="380" width="40" height="40" as="geometry" />
        </mxCell>
        <mxCell id="0oPSDTxZOHHm6pKs5NPg-84" value="55" style="whiteSpace=wrap;html=1;aspect=fixed;strokeColor=#0F8B8D;fontColor=#143642;fillColor=#FAE5C7;labelBackgroundColor=none;" vertex="1" parent="1">
          <mxGeometry x="644" y="380" width="40" height="40" as="geometry" />
        </mxCell>
        <mxCell id="0oPSDTxZOHHm6pKs5NPg-85" value="" style="endArrow=classic;html=1;rounded=0;strokeColor=#b46504;fontColor=#143642;fillColor=#fad7ac;" edge="1" parent="1">
          <mxGeometry width="50" height="50" relative="1" as="geometry">
            <mxPoint x="543.67" y="440" as="sourcePoint" />
            <mxPoint x="543.67" y="460" as="targetPoint" />
          </mxGeometry>
        </mxCell>
        <mxCell id="0oPSDTxZOHHm6pKs5NPg-86" value="" style="endArrow=none;html=1;rounded=0;strokeColor=#b46504;fontColor=#143642;fillColor=#fad7ac;edgeStyle=orthogonalEdgeStyle;entryX=0.5;entryY=1;entryDx=0;entryDy=0;" edge="1" parent="1">
          <mxGeometry width="50" height="50" relative="1" as="geometry">
            <mxPoint x="464" y="330" as="sourcePoint" />
            <mxPoint x="624" y="420" as="targetPoint" />
            <Array as="points">
              <mxPoint x="464" y="330" />
              <mxPoint x="464" y="440" />
              <mxPoint x="624" y="440" />
            </Array>
          </mxGeometry>
        </mxCell>
        <mxCell id="0oPSDTxZOHHm6pKs5NPg-87" value="20" style="whiteSpace=wrap;html=1;aspect=fixed;strokeColor=#0F8B8D;fontColor=#143642;fillColor=#FAE5C7;labelBackgroundColor=none;" vertex="1" parent="1">
          <mxGeometry x="444" y="470" width="40" height="40" as="geometry" />
        </mxCell>
        <mxCell id="0oPSDTxZOHHm6pKs5NPg-88" value="31" style="whiteSpace=wrap;html=1;aspect=fixed;strokeColor=#0F8B8D;fontColor=#143642;fillColor=#FAE5C7;labelBackgroundColor=none;" vertex="1" parent="1">
          <mxGeometry x="484" y="470" width="40" height="40" as="geometry" />
        </mxCell>
        <mxCell id="0oPSDTxZOHHm6pKs5NPg-89" value="44" style="whiteSpace=wrap;html=1;aspect=fixed;strokeColor=#0F8B8D;fontColor=#143642;fillColor=#FAE5C7;labelBackgroundColor=none;" vertex="1" parent="1">
          <mxGeometry x="524" y="470" width="40" height="40" as="geometry" />
        </mxCell>
        <mxCell id="0oPSDTxZOHHm6pKs5NPg-90" value="55" style="whiteSpace=wrap;html=1;aspect=fixed;strokeColor=#0F8B8D;fontColor=#143642;fillColor=#FAE5C7;labelBackgroundColor=none;" vertex="1" parent="1">
          <mxGeometry x="564" y="470" width="40" height="40" as="geometry" />
        </mxCell>
        <mxCell id="0oPSDTxZOHHm6pKs5NPg-91" value="77" style="whiteSpace=wrap;html=1;aspect=fixed;strokeColor=#0F8B8D;fontColor=#143642;fillColor=#FAE5C7;labelBackgroundColor=none;" vertex="1" parent="1">
          <mxGeometry x="604" y="470" width="40" height="40" as="geometry" />
        </mxCell>
        <mxCell id="0oPSDTxZOHHm6pKs5NPg-92" value="" style="endArrow=classic;html=1;rounded=0;strokeColor=#b46504;fontColor=#143642;fillColor=#fad7ac;" edge="1" parent="1">
          <mxGeometry width="50" height="50" relative="1" as="geometry">
            <mxPoint x="390" y="530" as="sourcePoint" />
            <mxPoint x="390" y="550" as="targetPoint" />
          </mxGeometry>
        </mxCell>
        <mxCell id="0oPSDTxZOHHm6pKs5NPg-93" value="" style="endArrow=none;html=1;rounded=0;strokeColor=#b46504;fontColor=#143642;fillColor=#fad7ac;edgeStyle=orthogonalEdgeStyle;entryX=0.5;entryY=1;entryDx=0;entryDy=0;" edge="1" parent="1">
          <mxGeometry width="50" height="50" relative="1" as="geometry">
            <mxPoint x="230" y="420" as="sourcePoint" />
            <mxPoint x="543.98" y="510" as="targetPoint" />
            <Array as="points">
              <mxPoint x="230" y="420" />
              <mxPoint x="230" y="530" />
              <mxPoint x="544" y="530" />
            </Array>
          </mxGeometry>
        </mxCell>
        <mxCell id="0oPSDTxZOHHm6pKs5NPg-94" value="17" style="whiteSpace=wrap;html=1;aspect=fixed;strokeColor=#0F8B8D;fontColor=#143642;fillColor=#FAE5C7;labelBackgroundColor=none;" vertex="1" parent="1">
          <mxGeometry x="214" y="560" width="40" height="40" as="geometry" />
        </mxCell>
        <mxCell id="0oPSDTxZOHHm6pKs5NPg-95" value="20" style="whiteSpace=wrap;html=1;aspect=fixed;strokeColor=#0F8B8D;fontColor=#143642;fillColor=#FAE5C7;labelBackgroundColor=none;" vertex="1" parent="1">
          <mxGeometry x="254" y="560" width="40" height="40" as="geometry" />
        </mxCell>
        <mxCell id="0oPSDTxZOHHm6pKs5NPg-96" value="26" style="whiteSpace=wrap;html=1;aspect=fixed;strokeColor=#0F8B8D;fontColor=#143642;fillColor=#FAE5C7;labelBackgroundColor=none;" vertex="1" parent="1">
          <mxGeometry x="294" y="560" width="40" height="40" as="geometry" />
        </mxCell>
        <mxCell id="0oPSDTxZOHHm6pKs5NPg-97" value="31" style="whiteSpace=wrap;html=1;aspect=fixed;strokeColor=#0F8B8D;fontColor=#143642;fillColor=#FAE5C7;labelBackgroundColor=none;" vertex="1" parent="1">
          <mxGeometry x="334" y="560" width="40" height="40" as="geometry" />
        </mxCell>
        <mxCell id="0oPSDTxZOHHm6pKs5NPg-98" value="44" style="whiteSpace=wrap;html=1;aspect=fixed;strokeColor=#0F8B8D;fontColor=#143642;fillColor=#FAE5C7;labelBackgroundColor=none;" vertex="1" parent="1">
          <mxGeometry x="374" y="560" width="40" height="40" as="geometry" />
        </mxCell>
        <mxCell id="0oPSDTxZOHHm6pKs5NPg-99" value="54" style="whiteSpace=wrap;html=1;aspect=fixed;strokeColor=#0F8B8D;fontColor=#143642;fillColor=#FAE5C7;labelBackgroundColor=none;" vertex="1" parent="1">
          <mxGeometry x="414" y="560" width="40" height="40" as="geometry" />
        </mxCell>
        <mxCell id="0oPSDTxZOHHm6pKs5NPg-100" value="55" style="whiteSpace=wrap;html=1;aspect=fixed;strokeColor=#0F8B8D;fontColor=#143642;fillColor=#FAE5C7;labelBackgroundColor=none;" vertex="1" parent="1">
          <mxGeometry x="454" y="560" width="40" height="40" as="geometry" />
        </mxCell>
        <mxCell id="0oPSDTxZOHHm6pKs5NPg-101" value="77" style="whiteSpace=wrap;html=1;aspect=fixed;strokeColor=#0F8B8D;fontColor=#143642;fillColor=#FAE5C7;labelBackgroundColor=none;" vertex="1" parent="1">
          <mxGeometry x="494" y="560" width="40" height="40" as="geometry" />
        </mxCell>
        <mxCell id="0oPSDTxZOHHm6pKs5NPg-102" value="93" style="whiteSpace=wrap;html=1;aspect=fixed;strokeColor=#0F8B8D;fontColor=#143642;fillColor=#FAE5C7;labelBackgroundColor=none;" vertex="1" parent="1">
          <mxGeometry x="534" y="560" width="40" height="40" as="geometry" />
        </mxCell>
      </root>
    </mxGraphModel>
  </diagram>
  <diagram id="geHAG8DqhHoGoFpFdSC_" name="Quick Sort">
    <mxGraphModel dx="1514" dy="956" grid="1" gridSize="10" guides="1" tooltips="1" connect="1" arrows="1" fold="1" page="1" pageScale="1" pageWidth="827" pageHeight="1169" math="0" shadow="0">
      <root>
        <mxCell id="0" />
        <mxCell id="1" parent="0" />
        <mxCell id="Z5NyG2tpQRyEIxSmZpOV-1" value="54" style="whiteSpace=wrap;html=1;aspect=fixed;strokeColor=#56517e;fillColor=#d0cee2;labelBackgroundColor=none;" vertex="1" parent="1">
          <mxGeometry x="240" y="40" width="40" height="40" as="geometry" />
        </mxCell>
        <mxCell id="Z5NyG2tpQRyEIxSmZpOV-2" value="26" style="whiteSpace=wrap;html=1;aspect=fixed;strokeColor=#0F8B8D;fillColor=#FAE5C7;labelBackgroundColor=none;fontColor=#143642;" vertex="1" parent="1">
          <mxGeometry x="280" y="40" width="40" height="40" as="geometry" />
        </mxCell>
        <mxCell id="Z5NyG2tpQRyEIxSmZpOV-3" value="93" style="whiteSpace=wrap;html=1;aspect=fixed;strokeColor=#0F8B8D;fillColor=#FAE5C7;labelBackgroundColor=none;fontColor=#143642;" vertex="1" parent="1">
          <mxGeometry x="320" y="40" width="40" height="40" as="geometry" />
        </mxCell>
        <mxCell id="Z5NyG2tpQRyEIxSmZpOV-4" value="17" style="whiteSpace=wrap;html=1;aspect=fixed;strokeColor=#0F8B8D;fillColor=#FAE5C7;labelBackgroundColor=none;fontColor=#143642;" vertex="1" parent="1">
          <mxGeometry x="360" y="40" width="40" height="40" as="geometry" />
        </mxCell>
        <mxCell id="Z5NyG2tpQRyEIxSmZpOV-5" value="77" style="whiteSpace=wrap;html=1;aspect=fixed;strokeColor=#0F8B8D;fontColor=#143642;fillColor=#FAE5C7;labelBackgroundColor=none;" vertex="1" parent="1">
          <mxGeometry x="400" y="40" width="40" height="40" as="geometry" />
        </mxCell>
        <mxCell id="Z5NyG2tpQRyEIxSmZpOV-6" value="31" style="whiteSpace=wrap;html=1;aspect=fixed;strokeColor=#0F8B8D;fontColor=#143642;fillColor=#FAE5C7;labelBackgroundColor=none;" vertex="1" parent="1">
          <mxGeometry x="440" y="40" width="40" height="40" as="geometry" />
        </mxCell>
        <mxCell id="Z5NyG2tpQRyEIxSmZpOV-7" value="44" style="whiteSpace=wrap;html=1;aspect=fixed;strokeColor=#0F8B8D;fontColor=#143642;fillColor=#FAE5C7;labelBackgroundColor=none;" vertex="1" parent="1">
          <mxGeometry x="480" y="40" width="40" height="40" as="geometry" />
        </mxCell>
        <mxCell id="Z5NyG2tpQRyEIxSmZpOV-8" value="55" style="whiteSpace=wrap;html=1;aspect=fixed;strokeColor=#0F8B8D;fontColor=#143642;fillColor=#FAE5C7;labelBackgroundColor=none;" vertex="1" parent="1">
          <mxGeometry x="520" y="40" width="40" height="40" as="geometry" />
        </mxCell>
        <mxCell id="Z5NyG2tpQRyEIxSmZpOV-9" value="20" style="whiteSpace=wrap;html=1;aspect=fixed;strokeColor=#0F8B8D;fontColor=#143642;fillColor=#FAE5C7;labelBackgroundColor=none;" vertex="1" parent="1">
          <mxGeometry x="560" y="40" width="40" height="40" as="geometry" />
        </mxCell>
        <mxCell id="Z5NyG2tpQRyEIxSmZpOV-11" value="" style="endArrow=classic;html=1;rounded=0;strokeColor=#A8201A;fontColor=#143642;fillColor=#FAE5C7;" edge="1" parent="1">
          <mxGeometry width="50" height="50" relative="1" as="geometry">
            <mxPoint x="300" y="110" as="sourcePoint" />
            <mxPoint x="300" y="90" as="targetPoint" />
          </mxGeometry>
        </mxCell>
        <mxCell id="Z5NyG2tpQRyEIxSmZpOV-12" value="&lt;font color=&quot;#000000&quot;&gt;lft&lt;/font&gt;" style="text;html=1;align=center;verticalAlign=middle;resizable=0;points=[];autosize=1;" vertex="1" parent="1">
          <mxGeometry x="285" y="110" width="30" height="30" as="geometry" />
        </mxCell>
        <mxCell id="Z5NyG2tpQRyEIxSmZpOV-13" value="" style="endArrow=classic;html=1;rounded=0;strokeColor=#A8201A;fontColor=#143642;fillColor=#FAE5C7;" edge="1" parent="1">
          <mxGeometry width="50" height="50" relative="1" as="geometry">
            <mxPoint x="320" y="124.76" as="sourcePoint" />
            <mxPoint x="370" y="124.76" as="targetPoint" />
          </mxGeometry>
        </mxCell>
        <mxCell id="Z5NyG2tpQRyEIxSmZpOV-15" value="" style="endArrow=classic;html=1;rounded=0;strokeColor=#A8201A;fontColor=#143642;fillColor=#FAE5C7;" edge="1" parent="1">
          <mxGeometry width="50" height="50" relative="1" as="geometry">
            <mxPoint x="579.76" y="110" as="sourcePoint" />
            <mxPoint x="579.76" y="90" as="targetPoint" />
          </mxGeometry>
        </mxCell>
        <mxCell id="Z5NyG2tpQRyEIxSmZpOV-16" value="" style="endArrow=classic;html=1;rounded=0;strokeColor=#A8201A;fontColor=#143642;fillColor=#FAE5C7;" edge="1" parent="1">
          <mxGeometry width="50" height="50" relative="1" as="geometry">
            <mxPoint x="560" y="124.75999999999999" as="sourcePoint" />
            <mxPoint x="510" y="125" as="targetPoint" />
          </mxGeometry>
        </mxCell>
        <mxCell id="Z5NyG2tpQRyEIxSmZpOV-17" value="&lt;font color=&quot;#000000&quot;&gt;rgt&lt;/font&gt;" style="text;html=1;align=center;verticalAlign=middle;resizable=0;points=[];autosize=1;" vertex="1" parent="1">
          <mxGeometry x="560" y="110" width="40" height="30" as="geometry" />
        </mxCell>
        <mxCell id="Z5NyG2tpQRyEIxSmZpOV-18" value="54" style="whiteSpace=wrap;html=1;aspect=fixed;strokeColor=#0F8B8D;fillColor=#FAE5C7;labelBackgroundColor=none;fontColor=#143642;" vertex="1" parent="1">
          <mxGeometry x="240" y="150" width="40" height="40" as="geometry" />
        </mxCell>
        <mxCell id="Z5NyG2tpQRyEIxSmZpOV-19" value="26" style="whiteSpace=wrap;html=1;aspect=fixed;strokeColor=#0F8B8D;fillColor=#FAE5C7;labelBackgroundColor=none;fontColor=#143642;" vertex="1" parent="1">
          <mxGeometry x="280" y="150" width="40" height="40" as="geometry" />
        </mxCell>
        <mxCell id="Z5NyG2tpQRyEIxSmZpOV-20" value="93" style="whiteSpace=wrap;html=1;aspect=fixed;strokeColor=#56517e;fillColor=#d0cee2;labelBackgroundColor=none;" vertex="1" parent="1">
          <mxGeometry x="320" y="150" width="40" height="40" as="geometry" />
        </mxCell>
        <mxCell id="Z5NyG2tpQRyEIxSmZpOV-21" value="17" style="whiteSpace=wrap;html=1;aspect=fixed;strokeColor=#0F8B8D;fillColor=#FAE5C7;labelBackgroundColor=none;fontColor=#143642;" vertex="1" parent="1">
          <mxGeometry x="360" y="150" width="40" height="40" as="geometry" />
        </mxCell>
        <mxCell id="Z5NyG2tpQRyEIxSmZpOV-22" value="77" style="whiteSpace=wrap;html=1;aspect=fixed;strokeColor=#0F8B8D;fontColor=#143642;fillColor=#FAE5C7;labelBackgroundColor=none;" vertex="1" parent="1">
          <mxGeometry x="400" y="150" width="40" height="40" as="geometry" />
        </mxCell>
        <mxCell id="Z5NyG2tpQRyEIxSmZpOV-23" value="31" style="whiteSpace=wrap;html=1;aspect=fixed;strokeColor=#0F8B8D;fontColor=#143642;fillColor=#FAE5C7;labelBackgroundColor=none;" vertex="1" parent="1">
          <mxGeometry x="440" y="150" width="40" height="40" as="geometry" />
        </mxCell>
        <mxCell id="Z5NyG2tpQRyEIxSmZpOV-24" value="44" style="whiteSpace=wrap;html=1;aspect=fixed;strokeColor=#0F8B8D;fontColor=#143642;fillColor=#FAE5C7;labelBackgroundColor=none;" vertex="1" parent="1">
          <mxGeometry x="480" y="150" width="40" height="40" as="geometry" />
        </mxCell>
        <mxCell id="Z5NyG2tpQRyEIxSmZpOV-25" value="55" style="whiteSpace=wrap;html=1;aspect=fixed;strokeColor=#0F8B8D;fontColor=#143642;fillColor=#FAE5C7;labelBackgroundColor=none;" vertex="1" parent="1">
          <mxGeometry x="520" y="150" width="40" height="40" as="geometry" />
        </mxCell>
        <mxCell id="Z5NyG2tpQRyEIxSmZpOV-26" value="20" style="whiteSpace=wrap;html=1;aspect=fixed;strokeColor=#0F8B8D;fontColor=#143642;fillColor=#FAE5C7;labelBackgroundColor=none;" vertex="1" parent="1">
          <mxGeometry x="560" y="150" width="40" height="40" as="geometry" />
        </mxCell>
        <mxCell id="Z5NyG2tpQRyEIxSmZpOV-27" value="" style="endArrow=classic;html=1;rounded=0;strokeColor=#A8201A;fontColor=#143642;fillColor=#FAE5C7;" edge="1" parent="1">
          <mxGeometry width="50" height="50" relative="1" as="geometry">
            <mxPoint x="340" y="220" as="sourcePoint" />
            <mxPoint x="340" y="200" as="targetPoint" />
          </mxGeometry>
        </mxCell>
        <mxCell id="Z5NyG2tpQRyEIxSmZpOV-28" value="&lt;font color=&quot;#000000&quot;&gt;lft&lt;/font&gt;" style="text;html=1;align=center;verticalAlign=middle;resizable=0;points=[];autosize=1;" vertex="1" parent="1">
          <mxGeometry x="325" y="220" width="30" height="30" as="geometry" />
        </mxCell>
        <mxCell id="Z5NyG2tpQRyEIxSmZpOV-30" value="" style="endArrow=classic;html=1;rounded=0;strokeColor=#A8201A;fontColor=#143642;fillColor=#FAE5C7;" edge="1" parent="1">
          <mxGeometry width="50" height="50" relative="1" as="geometry">
            <mxPoint x="579.76" y="220" as="sourcePoint" />
            <mxPoint x="579.76" y="200" as="targetPoint" />
          </mxGeometry>
        </mxCell>
        <mxCell id="Z5NyG2tpQRyEIxSmZpOV-32" value="&lt;font color=&quot;#000000&quot;&gt;rgt&lt;/font&gt;" style="text;html=1;align=center;verticalAlign=middle;resizable=0;points=[];autosize=1;" vertex="1" parent="1">
          <mxGeometry x="560" y="220" width="40" height="30" as="geometry" />
        </mxCell>
        <mxCell id="Z5NyG2tpQRyEIxSmZpOV-42" value="&lt;font color=&quot;#000000&quot;&gt;26 &amp;lt; 54 : mover a la derecha&lt;/font&gt;&lt;div&gt;&lt;font color=&quot;#000000&quot;&gt;93 &amp;gt; 54 : parar&lt;/font&gt;&lt;/div&gt;" style="text;html=1;align=center;verticalAlign=middle;resizable=0;points=[];autosize=1;" vertex="1" parent="1">
          <mxGeometry x="55" y="150" width="180" height="40" as="geometry" />
        </mxCell>
        <mxCell id="Z5NyG2tpQRyEIxSmZpOV-43" value="lft y rgt convergen al mismo&lt;div&gt;punto de división&lt;/div&gt;" style="text;html=1;align=center;verticalAlign=middle;resizable=0;points=[];autosize=1;" vertex="1" parent="1">
          <mxGeometry x="65" y="40" width="170" height="40" as="geometry" />
        </mxCell>
        <mxCell id="Z5NyG2tpQRyEIxSmZpOV-44" value="54" style="whiteSpace=wrap;html=1;aspect=fixed;strokeColor=#0F8B8D;fillColor=#FAE5C7;labelBackgroundColor=none;fontColor=#143642;" vertex="1" parent="1">
          <mxGeometry x="240" y="260" width="40" height="40" as="geometry" />
        </mxCell>
        <mxCell id="Z5NyG2tpQRyEIxSmZpOV-45" value="26" style="whiteSpace=wrap;html=1;aspect=fixed;strokeColor=#0F8B8D;fillColor=#FAE5C7;labelBackgroundColor=none;fontColor=#143642;" vertex="1" parent="1">
          <mxGeometry x="280" y="260" width="40" height="40" as="geometry" />
        </mxCell>
        <mxCell id="Z5NyG2tpQRyEIxSmZpOV-46" value="93" style="whiteSpace=wrap;html=1;aspect=fixed;strokeColor=#56517e;fillColor=#d0cee2;labelBackgroundColor=none;" vertex="1" parent="1">
          <mxGeometry x="320" y="260" width="40" height="40" as="geometry" />
        </mxCell>
        <mxCell id="Z5NyG2tpQRyEIxSmZpOV-47" value="17" style="whiteSpace=wrap;html=1;aspect=fixed;strokeColor=#0F8B8D;fillColor=#FAE5C7;labelBackgroundColor=none;fontColor=#143642;" vertex="1" parent="1">
          <mxGeometry x="360" y="260" width="40" height="40" as="geometry" />
        </mxCell>
        <mxCell id="Z5NyG2tpQRyEIxSmZpOV-48" value="77" style="whiteSpace=wrap;html=1;aspect=fixed;strokeColor=#0F8B8D;fontColor=#143642;fillColor=#FAE5C7;labelBackgroundColor=none;" vertex="1" parent="1">
          <mxGeometry x="400" y="260" width="40" height="40" as="geometry" />
        </mxCell>
        <mxCell id="Z5NyG2tpQRyEIxSmZpOV-49" value="31" style="whiteSpace=wrap;html=1;aspect=fixed;strokeColor=#0F8B8D;fontColor=#143642;fillColor=#FAE5C7;labelBackgroundColor=none;" vertex="1" parent="1">
          <mxGeometry x="440" y="260" width="40" height="40" as="geometry" />
        </mxCell>
        <mxCell id="Z5NyG2tpQRyEIxSmZpOV-50" value="44" style="whiteSpace=wrap;html=1;aspect=fixed;strokeColor=#0F8B8D;fontColor=#143642;fillColor=#FAE5C7;labelBackgroundColor=none;" vertex="1" parent="1">
          <mxGeometry x="480" y="260" width="40" height="40" as="geometry" />
        </mxCell>
        <mxCell id="Z5NyG2tpQRyEIxSmZpOV-51" value="55" style="whiteSpace=wrap;html=1;aspect=fixed;strokeColor=#0F8B8D;fontColor=#143642;fillColor=#FAE5C7;labelBackgroundColor=none;" vertex="1" parent="1">
          <mxGeometry x="520" y="260" width="40" height="40" as="geometry" />
        </mxCell>
        <mxCell id="Z5NyG2tpQRyEIxSmZpOV-52" value="20" style="whiteSpace=wrap;html=1;aspect=fixed;strokeColor=#56517e;fillColor=#d0cee2;labelBackgroundColor=none;" vertex="1" parent="1">
          <mxGeometry x="560" y="260" width="40" height="40" as="geometry" />
        </mxCell>
        <mxCell id="Z5NyG2tpQRyEIxSmZpOV-53" value="" style="endArrow=classic;html=1;rounded=0;strokeColor=#A8201A;fontColor=#143642;fillColor=#FAE5C7;" edge="1" parent="1">
          <mxGeometry width="50" height="50" relative="1" as="geometry">
            <mxPoint x="340" y="330" as="sourcePoint" />
            <mxPoint x="340" y="310" as="targetPoint" />
          </mxGeometry>
        </mxCell>
        <mxCell id="Z5NyG2tpQRyEIxSmZpOV-54" value="&lt;font color=&quot;#000000&quot;&gt;lft&lt;/font&gt;" style="text;html=1;align=center;verticalAlign=middle;resizable=0;points=[];autosize=1;" vertex="1" parent="1">
          <mxGeometry x="325" y="330" width="30" height="30" as="geometry" />
        </mxCell>
        <mxCell id="Z5NyG2tpQRyEIxSmZpOV-55" value="" style="endArrow=classic;html=1;rounded=0;strokeColor=#A8201A;fontColor=#143642;fillColor=#FAE5C7;" edge="1" parent="1">
          <mxGeometry width="50" height="50" relative="1" as="geometry">
            <mxPoint x="579.76" y="330" as="sourcePoint" />
            <mxPoint x="579.76" y="310" as="targetPoint" />
          </mxGeometry>
        </mxCell>
        <mxCell id="Z5NyG2tpQRyEIxSmZpOV-56" value="&lt;font color=&quot;#000000&quot;&gt;rgt&lt;/font&gt;" style="text;html=1;align=center;verticalAlign=middle;resizable=0;points=[];autosize=1;" vertex="1" parent="1">
          <mxGeometry x="560" y="330" width="40" height="30" as="geometry" />
        </mxCell>
        <mxCell id="Z5NyG2tpQRyEIxSmZpOV-57" value="20 &amp;lt; 54 : parar" style="text;html=1;align=center;verticalAlign=middle;resizable=0;points=[];autosize=1;" vertex="1" parent="1">
          <mxGeometry x="100" y="265" width="100" height="30" as="geometry" />
        </mxCell>
        <mxCell id="Z5NyG2tpQRyEIxSmZpOV-58" value="54" style="whiteSpace=wrap;html=1;aspect=fixed;strokeColor=#0F8B8D;fillColor=#FAE5C7;labelBackgroundColor=none;fontColor=#143642;" vertex="1" parent="1">
          <mxGeometry x="240" y="370" width="40" height="40" as="geometry" />
        </mxCell>
        <mxCell id="Z5NyG2tpQRyEIxSmZpOV-59" value="26" style="whiteSpace=wrap;html=1;aspect=fixed;strokeColor=#0F8B8D;fillColor=#FAE5C7;labelBackgroundColor=none;fontColor=#143642;" vertex="1" parent="1">
          <mxGeometry x="280" y="370" width="40" height="40" as="geometry" />
        </mxCell>
        <mxCell id="Z5NyG2tpQRyEIxSmZpOV-60" value="20" style="whiteSpace=wrap;html=1;aspect=fixed;strokeColor=#56517e;fillColor=#d0cee2;labelBackgroundColor=none;" vertex="1" parent="1">
          <mxGeometry x="320" y="370" width="40" height="40" as="geometry" />
        </mxCell>
        <mxCell id="Z5NyG2tpQRyEIxSmZpOV-61" value="17" style="whiteSpace=wrap;html=1;aspect=fixed;strokeColor=#0F8B8D;fillColor=#FAE5C7;labelBackgroundColor=none;fontColor=#143642;" vertex="1" parent="1">
          <mxGeometry x="360" y="370" width="40" height="40" as="geometry" />
        </mxCell>
        <mxCell id="Z5NyG2tpQRyEIxSmZpOV-62" value="77" style="whiteSpace=wrap;html=1;aspect=fixed;strokeColor=#0F8B8D;fontColor=#143642;fillColor=#FAE5C7;labelBackgroundColor=none;" vertex="1" parent="1">
          <mxGeometry x="400" y="370" width="40" height="40" as="geometry" />
        </mxCell>
        <mxCell id="Z5NyG2tpQRyEIxSmZpOV-63" value="31" style="whiteSpace=wrap;html=1;aspect=fixed;strokeColor=#0F8B8D;fontColor=#143642;fillColor=#FAE5C7;labelBackgroundColor=none;" vertex="1" parent="1">
          <mxGeometry x="440" y="370" width="40" height="40" as="geometry" />
        </mxCell>
        <mxCell id="Z5NyG2tpQRyEIxSmZpOV-64" value="44" style="whiteSpace=wrap;html=1;aspect=fixed;strokeColor=#0F8B8D;fontColor=#143642;fillColor=#FAE5C7;labelBackgroundColor=none;" vertex="1" parent="1">
          <mxGeometry x="480" y="370" width="40" height="40" as="geometry" />
        </mxCell>
        <mxCell id="Z5NyG2tpQRyEIxSmZpOV-65" value="55" style="whiteSpace=wrap;html=1;aspect=fixed;strokeColor=#0F8B8D;fontColor=#143642;fillColor=#FAE5C7;labelBackgroundColor=none;" vertex="1" parent="1">
          <mxGeometry x="520" y="370" width="40" height="40" as="geometry" />
        </mxCell>
        <mxCell id="Z5NyG2tpQRyEIxSmZpOV-66" value="93" style="whiteSpace=wrap;html=1;aspect=fixed;strokeColor=#56517e;fillColor=#d0cee2;labelBackgroundColor=none;" vertex="1" parent="1">
          <mxGeometry x="560" y="370" width="40" height="40" as="geometry" />
        </mxCell>
        <mxCell id="Z5NyG2tpQRyEIxSmZpOV-67" value="" style="endArrow=classic;html=1;rounded=0;strokeColor=#A8201A;fontColor=#143642;fillColor=#FAE5C7;" edge="1" parent="1">
          <mxGeometry width="50" height="50" relative="1" as="geometry">
            <mxPoint x="340" y="440" as="sourcePoint" />
            <mxPoint x="340" y="420" as="targetPoint" />
          </mxGeometry>
        </mxCell>
        <mxCell id="Z5NyG2tpQRyEIxSmZpOV-68" value="&lt;font color=&quot;#000000&quot;&gt;lft&lt;/font&gt;" style="text;html=1;align=center;verticalAlign=middle;resizable=0;points=[];autosize=1;" vertex="1" parent="1">
          <mxGeometry x="325" y="440" width="30" height="30" as="geometry" />
        </mxCell>
        <mxCell id="Z5NyG2tpQRyEIxSmZpOV-69" value="" style="endArrow=classic;html=1;rounded=0;strokeColor=#A8201A;fontColor=#143642;fillColor=#FAE5C7;" edge="1" parent="1">
          <mxGeometry width="50" height="50" relative="1" as="geometry">
            <mxPoint x="579.76" y="440" as="sourcePoint" />
            <mxPoint x="579.76" y="420" as="targetPoint" />
          </mxGeometry>
        </mxCell>
        <mxCell id="Z5NyG2tpQRyEIxSmZpOV-70" value="&lt;font color=&quot;#000000&quot;&gt;rgt&lt;/font&gt;" style="text;html=1;align=center;verticalAlign=middle;resizable=0;points=[];autosize=1;" vertex="1" parent="1">
          <mxGeometry x="560" y="440" width="40" height="30" as="geometry" />
        </mxCell>
        <mxCell id="Z5NyG2tpQRyEIxSmZpOV-71" value="intercambiar 20 y 93" style="text;html=1;align=center;verticalAlign=middle;resizable=0;points=[];autosize=1;" vertex="1" parent="1">
          <mxGeometry x="85" y="375" width="130" height="30" as="geometry" />
        </mxCell>
        <mxCell id="Z5NyG2tpQRyEIxSmZpOV-72" value="54" style="whiteSpace=wrap;html=1;aspect=fixed;strokeColor=#0F8B8D;fillColor=#FAE5C7;labelBackgroundColor=none;fontColor=#143642;" vertex="1" parent="1">
          <mxGeometry x="240" y="480" width="40" height="40" as="geometry" />
        </mxCell>
        <mxCell id="Z5NyG2tpQRyEIxSmZpOV-73" value="26" style="whiteSpace=wrap;html=1;aspect=fixed;strokeColor=#0F8B8D;fillColor=#FAE5C7;labelBackgroundColor=none;fontColor=#143642;" vertex="1" parent="1">
          <mxGeometry x="280" y="480" width="40" height="40" as="geometry" />
        </mxCell>
        <mxCell id="Z5NyG2tpQRyEIxSmZpOV-74" value="20" style="whiteSpace=wrap;html=1;aspect=fixed;strokeColor=#0F8B8D;fillColor=#FAE5C7;labelBackgroundColor=none;fontColor=#143642;" vertex="1" parent="1">
          <mxGeometry x="320" y="480" width="40" height="40" as="geometry" />
        </mxCell>
        <mxCell id="Z5NyG2tpQRyEIxSmZpOV-75" value="17" style="whiteSpace=wrap;html=1;aspect=fixed;strokeColor=#0F8B8D;fillColor=#FAE5C7;labelBackgroundColor=none;fontColor=#143642;" vertex="1" parent="1">
          <mxGeometry x="360" y="480" width="40" height="40" as="geometry" />
        </mxCell>
        <mxCell id="Z5NyG2tpQRyEIxSmZpOV-76" value="77" style="whiteSpace=wrap;html=1;aspect=fixed;strokeColor=#56517e;fillColor=#d0cee2;labelBackgroundColor=none;" vertex="1" parent="1">
          <mxGeometry x="400" y="480" width="40" height="40" as="geometry" />
        </mxCell>
        <mxCell id="Z5NyG2tpQRyEIxSmZpOV-77" value="31" style="whiteSpace=wrap;html=1;aspect=fixed;strokeColor=#0F8B8D;fontColor=#143642;fillColor=#FAE5C7;labelBackgroundColor=none;" vertex="1" parent="1">
          <mxGeometry x="440" y="480" width="40" height="40" as="geometry" />
        </mxCell>
        <mxCell id="Z5NyG2tpQRyEIxSmZpOV-78" value="44" style="whiteSpace=wrap;html=1;aspect=fixed;strokeColor=#0F8B8D;fontColor=#143642;fillColor=#FAE5C7;labelBackgroundColor=none;" vertex="1" parent="1">
          <mxGeometry x="480" y="480" width="40" height="40" as="geometry" />
        </mxCell>
        <mxCell id="Z5NyG2tpQRyEIxSmZpOV-79" value="55" style="whiteSpace=wrap;html=1;aspect=fixed;strokeColor=#0F8B8D;fontColor=#143642;fillColor=#FAE5C7;labelBackgroundColor=none;" vertex="1" parent="1">
          <mxGeometry x="520" y="480" width="40" height="40" as="geometry" />
        </mxCell>
        <mxCell id="Z5NyG2tpQRyEIxSmZpOV-80" value="93" style="whiteSpace=wrap;html=1;aspect=fixed;strokeColor=#56517e;fillColor=#d0cee2;labelBackgroundColor=none;" vertex="1" parent="1">
          <mxGeometry x="560" y="480" width="40" height="40" as="geometry" />
        </mxCell>
        <mxCell id="Z5NyG2tpQRyEIxSmZpOV-81" value="17 &amp;lt; 54 : mover a la derecha&lt;div&gt;77 &amp;gt; 54 : parar&lt;/div&gt;" style="text;html=1;align=center;verticalAlign=middle;resizable=0;points=[];autosize=1;" vertex="1" parent="1">
          <mxGeometry x="55" y="480" width="180" height="40" as="geometry" />
        </mxCell>
        <mxCell id="Z5NyG2tpQRyEIxSmZpOV-83" value="54" style="whiteSpace=wrap;html=1;aspect=fixed;strokeColor=#0F8B8D;fillColor=#FAE5C7;labelBackgroundColor=none;fontColor=#143642;" vertex="1" parent="1">
          <mxGeometry x="240" y="590" width="40" height="40" as="geometry" />
        </mxCell>
        <mxCell id="Z5NyG2tpQRyEIxSmZpOV-84" value="26" style="whiteSpace=wrap;html=1;aspect=fixed;strokeColor=#0F8B8D;fillColor=#FAE5C7;labelBackgroundColor=none;fontColor=#143642;" vertex="1" parent="1">
          <mxGeometry x="280" y="590" width="40" height="40" as="geometry" />
        </mxCell>
        <mxCell id="Z5NyG2tpQRyEIxSmZpOV-85" value="20" style="whiteSpace=wrap;html=1;aspect=fixed;strokeColor=#0F8B8D;fillColor=#FAE5C7;labelBackgroundColor=none;fontColor=#143642;" vertex="1" parent="1">
          <mxGeometry x="320" y="590" width="40" height="40" as="geometry" />
        </mxCell>
        <mxCell id="Z5NyG2tpQRyEIxSmZpOV-86" value="17" style="whiteSpace=wrap;html=1;aspect=fixed;strokeColor=#0F8B8D;fillColor=#FAE5C7;labelBackgroundColor=none;fontColor=#143642;" vertex="1" parent="1">
          <mxGeometry x="360" y="590" width="40" height="40" as="geometry" />
        </mxCell>
        <mxCell id="Z5NyG2tpQRyEIxSmZpOV-87" value="77" style="whiteSpace=wrap;html=1;aspect=fixed;strokeColor=#56517e;fillColor=#d0cee2;labelBackgroundColor=none;" vertex="1" parent="1">
          <mxGeometry x="400" y="590" width="40" height="40" as="geometry" />
        </mxCell>
        <mxCell id="Z5NyG2tpQRyEIxSmZpOV-88" value="31" style="whiteSpace=wrap;html=1;aspect=fixed;strokeColor=#0F8B8D;fontColor=#143642;fillColor=#FAE5C7;labelBackgroundColor=none;" vertex="1" parent="1">
          <mxGeometry x="440" y="590" width="40" height="40" as="geometry" />
        </mxCell>
        <mxCell id="Z5NyG2tpQRyEIxSmZpOV-89" value="44" style="whiteSpace=wrap;html=1;aspect=fixed;strokeColor=#56517e;fillColor=#d0cee2;labelBackgroundColor=none;" vertex="1" parent="1">
          <mxGeometry x="480" y="590" width="40" height="40" as="geometry" />
        </mxCell>
        <mxCell id="Z5NyG2tpQRyEIxSmZpOV-90" value="55" style="whiteSpace=wrap;html=1;aspect=fixed;strokeColor=#0F8B8D;fontColor=#143642;fillColor=#FAE5C7;labelBackgroundColor=none;" vertex="1" parent="1">
          <mxGeometry x="520" y="590" width="40" height="40" as="geometry" />
        </mxCell>
        <mxCell id="Z5NyG2tpQRyEIxSmZpOV-91" value="93" style="whiteSpace=wrap;html=1;aspect=fixed;strokeColor=#0F8B8D;fontColor=#143642;fillColor=#FAE5C7;labelBackgroundColor=none;" vertex="1" parent="1">
          <mxGeometry x="560" y="590" width="40" height="40" as="geometry" />
        </mxCell>
        <mxCell id="Z5NyG2tpQRyEIxSmZpOV-92" value="" style="endArrow=classic;html=1;rounded=0;strokeColor=#A8201A;fontColor=#143642;fillColor=#FAE5C7;" edge="1" parent="1">
          <mxGeometry width="50" height="50" relative="1" as="geometry">
            <mxPoint x="420" y="550" as="sourcePoint" />
            <mxPoint x="420" y="530" as="targetPoint" />
          </mxGeometry>
        </mxCell>
        <mxCell id="Z5NyG2tpQRyEIxSmZpOV-93" value="&lt;font color=&quot;#000000&quot;&gt;lft&lt;/font&gt;" style="text;html=1;align=center;verticalAlign=middle;resizable=0;points=[];autosize=1;" vertex="1" parent="1">
          <mxGeometry x="405" y="550" width="30" height="30" as="geometry" />
        </mxCell>
        <mxCell id="Z5NyG2tpQRyEIxSmZpOV-94" value="" style="endArrow=classic;html=1;rounded=0;strokeColor=#A8201A;fontColor=#143642;fillColor=#FAE5C7;" edge="1" parent="1">
          <mxGeometry width="50" height="50" relative="1" as="geometry">
            <mxPoint x="577.26" y="550" as="sourcePoint" />
            <mxPoint x="577.26" y="530" as="targetPoint" />
          </mxGeometry>
        </mxCell>
        <mxCell id="Z5NyG2tpQRyEIxSmZpOV-95" value="&lt;font color=&quot;#000000&quot;&gt;rgt&lt;/font&gt;" style="text;html=1;align=center;verticalAlign=middle;resizable=0;points=[];autosize=1;" vertex="1" parent="1">
          <mxGeometry x="557.5" y="550" width="40" height="30" as="geometry" />
        </mxCell>
        <mxCell id="Z5NyG2tpQRyEIxSmZpOV-96" value="55 &amp;gt; 54 : mover a la izquierda&lt;div&gt;44 &amp;lt; 54 : parar&lt;/div&gt;&lt;div&gt;intercambiar 77 y 44&lt;/div&gt;" style="text;html=1;align=center;verticalAlign=middle;resizable=0;points=[];autosize=1;" vertex="1" parent="1">
          <mxGeometry x="55" y="580" width="180" height="60" as="geometry" />
        </mxCell>
        <mxCell id="Z5NyG2tpQRyEIxSmZpOV-97" value="" style="endArrow=classic;html=1;rounded=0;strokeColor=#A8201A;fontColor=#143642;fillColor=#FAE5C7;" edge="1" parent="1">
          <mxGeometry width="50" height="50" relative="1" as="geometry">
            <mxPoint x="420" y="660" as="sourcePoint" />
            <mxPoint x="420" y="640" as="targetPoint" />
          </mxGeometry>
        </mxCell>
        <mxCell id="Z5NyG2tpQRyEIxSmZpOV-98" value="&lt;font color=&quot;#000000&quot;&gt;lft&lt;/font&gt;" style="text;html=1;align=center;verticalAlign=middle;resizable=0;points=[];autosize=1;" vertex="1" parent="1">
          <mxGeometry x="405" y="660" width="30" height="30" as="geometry" />
        </mxCell>
        <mxCell id="Z5NyG2tpQRyEIxSmZpOV-99" value="" style="endArrow=classic;html=1;rounded=0;strokeColor=#A8201A;fontColor=#143642;fillColor=#FAE5C7;" edge="1" parent="1">
          <mxGeometry width="50" height="50" relative="1" as="geometry">
            <mxPoint x="499.76" y="660" as="sourcePoint" />
            <mxPoint x="499.76" y="640" as="targetPoint" />
          </mxGeometry>
        </mxCell>
        <mxCell id="Z5NyG2tpQRyEIxSmZpOV-100" value="&lt;font color=&quot;#000000&quot;&gt;rgt&lt;/font&gt;" style="text;html=1;align=center;verticalAlign=middle;resizable=0;points=[];autosize=1;" vertex="1" parent="1">
          <mxGeometry x="480" y="660" width="40" height="30" as="geometry" />
        </mxCell>
        <mxCell id="Z5NyG2tpQRyEIxSmZpOV-101" value="54" style="whiteSpace=wrap;html=1;aspect=fixed;strokeColor=#56517e;fillColor=#d0cee2;labelBackgroundColor=none;" vertex="1" parent="1">
          <mxGeometry x="240" y="700" width="40" height="40" as="geometry" />
        </mxCell>
        <mxCell id="Z5NyG2tpQRyEIxSmZpOV-102" value="26" style="whiteSpace=wrap;html=1;aspect=fixed;strokeColor=#0F8B8D;fillColor=#FAE5C7;labelBackgroundColor=none;fontColor=#143642;" vertex="1" parent="1">
          <mxGeometry x="280" y="700" width="40" height="40" as="geometry" />
        </mxCell>
        <mxCell id="Z5NyG2tpQRyEIxSmZpOV-103" value="20" style="whiteSpace=wrap;html=1;aspect=fixed;strokeColor=#0F8B8D;fillColor=#FAE5C7;labelBackgroundColor=none;fontColor=#143642;" vertex="1" parent="1">
          <mxGeometry x="320" y="700" width="40" height="40" as="geometry" />
        </mxCell>
        <mxCell id="Z5NyG2tpQRyEIxSmZpOV-104" value="17" style="whiteSpace=wrap;html=1;aspect=fixed;strokeColor=#0F8B8D;fillColor=#FAE5C7;labelBackgroundColor=none;fontColor=#143642;" vertex="1" parent="1">
          <mxGeometry x="360" y="700" width="40" height="40" as="geometry" />
        </mxCell>
        <mxCell id="Z5NyG2tpQRyEIxSmZpOV-105" value="44" style="whiteSpace=wrap;html=1;aspect=fixed;strokeColor=#0F8B8D;fontColor=#143642;fillColor=#FAE5C7;labelBackgroundColor=none;" vertex="1" parent="1">
          <mxGeometry x="400" y="700" width="40" height="40" as="geometry" />
        </mxCell>
        <mxCell id="Z5NyG2tpQRyEIxSmZpOV-106" value="31" style="whiteSpace=wrap;html=1;aspect=fixed;strokeColor=#56517e;fillColor=#d0cee2;labelBackgroundColor=none;" vertex="1" parent="1">
          <mxGeometry x="440" y="700" width="40" height="40" as="geometry" />
        </mxCell>
        <mxCell id="Z5NyG2tpQRyEIxSmZpOV-107" value="77" style="whiteSpace=wrap;html=1;aspect=fixed;strokeColor=#0F8B8D;fontColor=#143642;fillColor=#FAE5C7;labelBackgroundColor=none;" vertex="1" parent="1">
          <mxGeometry x="480" y="700" width="40" height="40" as="geometry" />
        </mxCell>
        <mxCell id="Z5NyG2tpQRyEIxSmZpOV-108" value="55" style="whiteSpace=wrap;html=1;aspect=fixed;strokeColor=#0F8B8D;fontColor=#143642;fillColor=#FAE5C7;labelBackgroundColor=none;" vertex="1" parent="1">
          <mxGeometry x="520" y="700" width="40" height="40" as="geometry" />
        </mxCell>
        <mxCell id="Z5NyG2tpQRyEIxSmZpOV-109" value="93" style="whiteSpace=wrap;html=1;aspect=fixed;strokeColor=#0F8B8D;fontColor=#143642;fillColor=#FAE5C7;labelBackgroundColor=none;" vertex="1" parent="1">
          <mxGeometry x="560" y="700" width="40" height="40" as="geometry" />
        </mxCell>
        <mxCell id="Z5NyG2tpQRyEIxSmZpOV-110" value="" style="endArrow=classic;html=1;rounded=0;strokeColor=#A8201A;fontColor=#143642;fillColor=#FAE5C7;" edge="1" parent="1">
          <mxGeometry width="50" height="50" relative="1" as="geometry">
            <mxPoint x="460" y="770" as="sourcePoint" />
            <mxPoint x="460" y="750" as="targetPoint" />
          </mxGeometry>
        </mxCell>
        <mxCell id="Z5NyG2tpQRyEIxSmZpOV-111" value="&lt;font color=&quot;#000000&quot;&gt;lft&lt;/font&gt;" style="text;html=1;align=center;verticalAlign=middle;resizable=0;points=[];autosize=1;" vertex="1" parent="1">
          <mxGeometry x="445" y="770" width="30" height="30" as="geometry" />
        </mxCell>
        <mxCell id="Z5NyG2tpQRyEIxSmZpOV-112" value="" style="endArrow=classic;html=1;rounded=0;strokeColor=#A8201A;fontColor=#143642;fillColor=#FAE5C7;" edge="1" parent="1">
          <mxGeometry width="50" height="50" relative="1" as="geometry">
            <mxPoint x="497.26" y="770" as="sourcePoint" />
            <mxPoint x="497.26" y="750" as="targetPoint" />
          </mxGeometry>
        </mxCell>
        <mxCell id="Z5NyG2tpQRyEIxSmZpOV-113" value="&lt;font color=&quot;#000000&quot;&gt;rgt&lt;/font&gt;" style="text;html=1;align=center;verticalAlign=middle;resizable=0;points=[];autosize=1;" vertex="1" parent="1">
          <mxGeometry x="477.5" y="770" width="40" height="30" as="geometry" />
        </mxCell>
        <mxCell id="Z5NyG2tpQRyEIxSmZpOV-114" value="31 &amp;lt; 54 : parar&lt;div&gt;77 &amp;gt; 54 : parar&lt;/div&gt;&lt;div&gt;lft &amp;lt; rgt : punto de división&lt;/div&gt;&lt;div&gt;intercambiar 31 y 54&lt;/div&gt;" style="text;html=1;align=center;verticalAlign=middle;resizable=0;points=[];autosize=1;" vertex="1" parent="1">
          <mxGeometry x="70" y="685" width="160" height="70" as="geometry" />
        </mxCell>
        <mxCell id="Z5NyG2tpQRyEIxSmZpOV-115" value="31" style="whiteSpace=wrap;html=1;aspect=fixed;strokeColor=#0F8B8D;fillColor=#FAE5C7;labelBackgroundColor=none;fontColor=#143642;" vertex="1" parent="1">
          <mxGeometry x="240" y="810" width="40" height="40" as="geometry" />
        </mxCell>
        <mxCell id="Z5NyG2tpQRyEIxSmZpOV-116" value="26" style="whiteSpace=wrap;html=1;aspect=fixed;strokeColor=#0F8B8D;fillColor=#FAE5C7;labelBackgroundColor=none;fontColor=#143642;" vertex="1" parent="1">
          <mxGeometry x="280" y="810" width="40" height="40" as="geometry" />
        </mxCell>
        <mxCell id="Z5NyG2tpQRyEIxSmZpOV-117" value="20" style="whiteSpace=wrap;html=1;aspect=fixed;strokeColor=#0F8B8D;fillColor=#FAE5C7;labelBackgroundColor=none;fontColor=#143642;" vertex="1" parent="1">
          <mxGeometry x="320" y="810" width="40" height="40" as="geometry" />
        </mxCell>
        <mxCell id="Z5NyG2tpQRyEIxSmZpOV-118" value="17" style="whiteSpace=wrap;html=1;aspect=fixed;strokeColor=#0F8B8D;fillColor=#FAE5C7;labelBackgroundColor=none;fontColor=#143642;" vertex="1" parent="1">
          <mxGeometry x="360" y="810" width="40" height="40" as="geometry" />
        </mxCell>
        <mxCell id="Z5NyG2tpQRyEIxSmZpOV-119" value="44" style="whiteSpace=wrap;html=1;aspect=fixed;strokeColor=#0F8B8D;fontColor=#143642;fillColor=#FAE5C7;labelBackgroundColor=none;" vertex="1" parent="1">
          <mxGeometry x="400" y="810" width="40" height="40" as="geometry" />
        </mxCell>
        <mxCell id="Z5NyG2tpQRyEIxSmZpOV-120" value="54" style="whiteSpace=wrap;html=1;aspect=fixed;strokeColor=#56517e;fillColor=#d0cee2;labelBackgroundColor=none;" vertex="1" parent="1">
          <mxGeometry x="440" y="810" width="40" height="40" as="geometry" />
        </mxCell>
        <mxCell id="Z5NyG2tpQRyEIxSmZpOV-121" value="77" style="whiteSpace=wrap;html=1;aspect=fixed;strokeColor=#0F8B8D;fontColor=#143642;fillColor=#FAE5C7;labelBackgroundColor=none;" vertex="1" parent="1">
          <mxGeometry x="480" y="810" width="40" height="40" as="geometry" />
        </mxCell>
        <mxCell id="Z5NyG2tpQRyEIxSmZpOV-122" value="55" style="whiteSpace=wrap;html=1;aspect=fixed;strokeColor=#0F8B8D;fontColor=#143642;fillColor=#FAE5C7;labelBackgroundColor=none;" vertex="1" parent="1">
          <mxGeometry x="520" y="810" width="40" height="40" as="geometry" />
        </mxCell>
        <mxCell id="Z5NyG2tpQRyEIxSmZpOV-123" value="93" style="whiteSpace=wrap;html=1;aspect=fixed;strokeColor=#0F8B8D;fontColor=#143642;fillColor=#FAE5C7;labelBackgroundColor=none;" vertex="1" parent="1">
          <mxGeometry x="560" y="810" width="40" height="40" as="geometry" />
        </mxCell>
        <mxCell id="Z5NyG2tpQRyEIxSmZpOV-126" value="54 (pivot) está en su&amp;nbsp;&lt;div&gt;lugar&lt;/div&gt;" style="text;html=1;align=center;verticalAlign=middle;resizable=0;points=[];autosize=1;" vertex="1" parent="1">
          <mxGeometry x="85" y="810" width="140" height="40" as="geometry" />
        </mxCell>
        <mxCell id="Z5NyG2tpQRyEIxSmZpOV-127" value="" style="shape=curlyBracket;whiteSpace=wrap;html=1;rounded=1;labelPosition=left;verticalLabelPosition=middle;align=right;verticalAlign=middle;strokeColor=#0F8B8D;fontColor=#143642;fillColor=#FAE5C7;rotation=-90;" vertex="1" parent="1">
          <mxGeometry x="330" y="790" width="20" height="160" as="geometry" />
        </mxCell>
        <mxCell id="Z5NyG2tpQRyEIxSmZpOV-128" value="" style="shape=curlyBracket;whiteSpace=wrap;html=1;rounded=1;labelPosition=left;verticalLabelPosition=middle;align=right;verticalAlign=middle;strokeColor=#0F8B8D;fontColor=#143642;fillColor=#FAE5C7;rotation=-90;" vertex="1" parent="1">
          <mxGeometry x="530" y="830" width="20" height="80" as="geometry" />
        </mxCell>
        <mxCell id="Z5NyG2tpQRyEIxSmZpOV-129" value="&amp;lt; 54" style="text;html=1;align=center;verticalAlign=middle;resizable=0;points=[];autosize=1;strokeColor=none;fillColor=none;fontColor=#143642;" vertex="1" parent="1">
          <mxGeometry x="315" y="880" width="50" height="30" as="geometry" />
        </mxCell>
        <mxCell id="Z5NyG2tpQRyEIxSmZpOV-130" value="&amp;gt; 54" style="text;html=1;align=center;verticalAlign=middle;resizable=0;points=[];autosize=1;strokeColor=none;fillColor=none;fontColor=#143642;" vertex="1" parent="1">
          <mxGeometry x="515" y="880" width="50" height="30" as="geometry" />
        </mxCell>
      </root>
    </mxGraphModel>
  </diagram>
  <diagram id="lSFMlgpSjxDAET8vY074" name="Punteros">
    <mxGraphModel dx="606" dy="382" grid="1" gridSize="10" guides="1" tooltips="1" connect="1" arrows="1" fold="1" page="1" pageScale="1" pageWidth="827" pageHeight="1169" math="0" shadow="0">
      <root>
        <mxCell id="0" />
        <mxCell id="1" parent="0" />
      </root>
    </mxGraphModel>
  </diagram>
</mxfile>
